<?xml version="1.0" encoding="utf-8"?>
<!-- Generator: Adobe Illustrator 24.1.3, SVG Export Plug-In . SVG Version: 6.00 Build 0)  -->
<svg version="1.1" id="Layer_1" xmlns="http://www.w3.org/2000/svg" xmlns:xlink="http://www.w3.org/1999/xlink" x="0px" y="0px"
	 viewBox="0 0 612 792" style="enable-background:new 0 0 612 792;" xml:space="preserve">
<style type="text/css">
	.st0{fill:#633327;}
</style>
<g>
	<g>
		<path class="st0" d="M538.51,309.99c-0.02,130.19-105.54,235.61-235.73,235.52C172.59,545.43,67.24,439.89,67.36,309.68
			c0.13-130.17,105.74-235.5,235.94-235.31C433.32,74.56,538.53,179.96,538.51,309.99z M76.75,309.68
			c-0.26,124.77,100.95,226.2,225.93,226.44c124.79,0.24,226.16-100.9,226.44-225.93C529.4,185.45,428.18,84.01,303.2,83.76
			C178.41,83.51,77.01,184.68,76.75,309.68z"/>
		<path class="st0" d="M522.29,309.76C522.37,431.02,424.23,529.27,303,529.3c-121.26,0.03-219.44-98.13-219.42-219.4
			c0.01-121.24,98.19-219.35,219.48-219.31C424.11,90.62,522.21,188.7,522.29,309.76z M303.47,99.97
			c-116-0.22-210.25,93.54-210.5,209.4c-0.24,116.19,93.66,210.41,209.82,210.53c115.9,0.12,210.02-93.89,210.11-209.86
			C513,194.33,419.16,100.2,303.47,99.97z"/>
		<path class="st0" d="M302.81,513.08C190.59,513.06,99.74,422.1,99.8,309.81c0.05-112.43,91.05-203.12,203.7-203.01
			c111.9,0.11,202.63,91.15,202.58,203.27C506.03,422.33,415.14,513.11,302.81,513.08z M302.66,503.69
			c107.03,0.08,193.7-86.29,194.03-193.35c0.33-106.81-86.38-193.93-193.24-194.15c-107.18-0.22-194.11,86.4-194.26,193.57
			C109.03,416.63,195.8,503.61,302.66,503.69z"/>
		<path class="st0" d="M337.93,486.62c-33.14,0-60.7-23.81-65.49-56.59c-1.01-6.88,2.94-12.47,9.67-13.72
			c6.21-1.15,12.07,2.9,13.24,9.65c3.21,18.43,13.55,30.89,31.5,35.87c29.76,8.26,57.39-16.16,54.41-46.9
			c-1.75-17.98-10.7-28.99-28.01-33.56c-9.03-2.39-18.13-4.64-26.99-7.57c-17.28-5.72-25.15-17.5-24.07-35.07
			c0.96-15.57,12.52-29.06,27.94-32.59c17.53-4.02,35.63,5.65,41.63,22.22c3.56,9.84-3.26,18.26-13.4,16.53
			c-4.82-0.82-6.99-4.19-8.61-8.44c-2.36-6.19-8.23-9.09-14.45-7.54c-6.08,1.51-10.11,7.12-9.56,13.34c0.45,5.04,3.7,8.04,8.07,9.47
			c9.55,3.12,19.25,5.78,28.88,8.69c17.78,5.37,31.94,15.16,37.88,33.58c12.66,39.29-4.03,74.84-39.31,88.7
			c-7.24,2.84-15.37,3.42-23.09,5.04C338.09,487.36,338.01,486.99,337.93,486.62z M389.4,420.8c-0.13,1.81-0.13,4.96-0.61,8.03
			c-3.84,24.26-26.57,43.42-51.84,42.59c-24.15-0.79-44.86-17.96-49.22-42.58c-0.48-2.69-1.05-4.92-4.3-4.48
			c-3.29,0.44-3.22,2.78-2.87,5.47c5,38.04,49.85,60.89,84.09,42.8c24.09-12.72,36.12-38.77,31.02-66.07
			c-3.5-18.72-13.65-31.38-31.9-37.28c-3.37-1.09-6.76-2.1-10.13-3.18c-8.48-2.72-17.05-5.19-25.38-8.29
			c-5.14-1.92-8.49-6.04-9.97-11.47c-2.81-10.33,2.75-21.35,13.1-24.46c11.35-3.41,21.57,0.3,25.59,11.14
			c1.09,2.92,2.62,5.56,6.14,3.92c3.29-1.53,1.64-4.36,0.62-6.63c-4.74-10.59-13.04-16.39-24.53-16.87
			c-11.76-0.48-20.54,5.08-25.94,15.39c-7.84,14.94-1.4,31.35,14.45,36.97c6.39,2.27,13.13,3.5,19.55,5.69
			c7.87,2.68,16.1,4.92,23.23,9.01C385.3,389,389.16,403.52,389.4,420.8z"/>
		<path class="st0" d="M338.05,274.75c33.23-0.01,60.65,23.42,65.83,56.27c1.07,6.81-2.73,12.82-8.78,13.89
			c-7.24,1.28-13.24-3-14.38-10.39c-2-13.01-8.64-23.1-19.73-29.91c-14.36-8.83-29.46-9.33-44.03-0.93
			c-14.97,8.62-22.59,22.04-21.88,39.55c0.2,4.91,0.95,9.93,2.32,14.64c3.71,12.69,13.67,18.56,25.48,22.07
			c9.63,2.86,19.41,5.26,28.92,8.48c18.66,6.32,23.98,20.6,21.73,37.98c-2.05,15.84-16.59,28.66-32.72,29.65
			c-16.35,1-31.17-8.45-36.38-23.29c-1.62-4.61-1.28-8.98,2.22-12.69c3.44-3.64,7.69-4.65,12.46-3.38c4.16,1.11,5.94,4.4,7.42,8.11
			c2.31,5.8,6.79,8.55,12.6,8.07c5.59-0.46,9.92-4.3,11.29-10.01c1.21-5.06-0.76-9.86-6.14-12.19c-5.81-2.51-12.08-3.9-18.03-6.1
			c-10.19-3.78-20.69-7.04-30.34-11.93c-13.37-6.77-19.66-19.23-22.48-33.43c-2.46-12.38-2.69-24.84,0.92-37.1
			C282.55,294.13,308.68,274.76,338.05,274.75z M286.97,343.52c-0.39-33.48,27.95-57.94,59.2-52.98
			c21.49,3.41,38.16,19.72,42.26,41.25c0.48,2.54,0.53,5.9,4.59,5.19c3.53-0.61,3.37-3.39,2.81-6.01
			c-5.06-24.04-19.4-40.14-43.03-46.24c-24.41-6.3-45.14,1.31-61.04,21.03c-12.14,15.06-13.86,32.5-10.7,50.84
			c2.87,16.68,12.32,27.99,28.21,33.87c3.85,1.42,7.69,2.87,11.6,4.11c8.5,2.71,17.12,5.04,25.52,8.01
			c6.05,2.14,10.42,6.44,11.88,12.94c2.41,10.7-3.54,21.08-13.72,24.28c-11.05,3.47-20.88-1.05-25.39-11.75
			c-1-2.37-2.05-4.72-5.18-3.56c-3.27,1.22-2.82,3.7-1.67,6.34c4.4,10.16,12.23,15.99,23.04,17.21
			c10.97,1.24,19.74-3.29,25.95-12.32c10.54-15.33,4.26-34.43-13.24-40.28c-6.18-2.07-12.56-3.52-18.83-5.29
			c-9.29-2.61-18.74-5.02-26.53-11.03C290.43,369.68,287.27,356.21,286.97,343.52z"/>
		<path class="st0" d="M207.43,273.56c0-18.63-0.28-37.27,0.06-55.9c0.76-41.8,33.64-79.03,75.04-84.3
			c12.47-1.59,25.25-1.02,37.88-1c6.03,0.01,10.63,5.75,10.41,11.84c-0.22,6.16-4.94,11.06-11.17,11.2
			c-7.54,0.17-15.08,0.05-22.62,0.05c-32.94,0-59.95,22.61-65.53,54.99c-0.69,4.04-0.88,8.2-0.88,12.31
			c-0.07,36.42-0.03,72.83-0.05,109.25c0,5.87-3.49,10.76-8.35,11.93c-5.45,1.31-11.08-0.93-13.4-5.8
			c-0.99-2.08-1.41-4.62-1.42-6.96c-0.11-19.2-0.06-38.41-0.06-57.61C207.37,273.56,207.4,273.56,207.43,273.56z M222.71,273.15
			c0-10.24-0.12-20.48,0.03-30.71c0.16-11.36-0.33-22.82,1.04-34.04c3.82-31.51,34.8-59.42,66.47-60.58
			c9.37-0.34,18.76-0.16,28.14-0.26c2.3-0.03,4.21-0.57,4.3-3.52c0.09-2.86-1.58-3.93-3.96-3.88c-11.78,0.24-23.74-0.57-35.31,1.17
			c-39.44,5.93-68.15,40.08-68.19,79.95c-0.03,36.12-0.01,72.23,0.01,108.35c0,1.41-0.23,3.06,0.41,4.16
			c0.66,1.14,2.26,2.43,3.42,2.41c1.16-0.02,2.64-1.38,3.33-2.54c0.58-0.96,0.29-2.48,0.29-3.76
			C222.71,310.98,222.71,292.06,222.71,273.15z"/>
		<path class="st0" d="M238.07,274.33c0-18.06-0.02-36.12,0-54.18c0.04-30.26,24.37-55.78,54.68-57.18
			c8.37-0.39,16.76-0.51,25.13-0.35c9.07,0.17,14.42,6.71,12.48,14.72c-1.27,5.27-5.47,8.66-11.12,8.72
			c-7.39,0.09-14.79-0.01-22.18,0.03c-20.75,0.12-35.94,15.43-35.95,36.21c-0.01,36.69,0.01,73.38-0.01,110.07
			c0,5.38-3.27,9.99-7.92,11.42c-4.66,1.44-10.19-0.14-12.84-4.34c-1.35-2.14-2.16-4.99-2.18-7.53
			C237.99,312.73,238.07,293.53,238.07,274.33z M253.23,273.66c0-17.2-0.06-34.4,0.02-51.6c0.1-21.71,14.27-39.78,34.88-43.06
			c8.89-1.42,18.14-0.53,27.22-0.72c1.55-0.03,3.34,0.21,4.58-0.47c1.2-0.65,2.58-2.37,2.51-3.55c-0.07-1.19-1.83-3.29-2.81-3.27
			c-11.75,0.24-23.79-0.67-35.18,1.58c-22.96,4.54-38.51,25.26-38.51,48.69c0,36.1,0,72.21,0.01,108.31c0,1.41-0.31,3.06,0.3,4.18
			c0.63,1.15,2.21,2.45,3.37,2.44c1.16-0.01,2.66-1.34,3.35-2.48c0.58-0.95,0.25-2.48,0.25-3.76
			C253.24,311.19,253.23,292.43,253.23,273.66z"/>
		<path class="st0" d="M297.79,231.62c-6.81,0-13.63,0.07-20.44-0.02c-7.34-0.09-12.05-4.88-11.96-11.98
			c0.09-6.76,4.88-11.22,12.19-11.24c13.63-0.03,27.26-0.03,40.89,0c7.24,0.02,12.43,5,12.36,11.72
			c-0.07,6.57-5.09,11.4-12.17,11.49C311.7,231.69,304.74,231.62,297.79,231.62z M297.7,223.74c6.67,0,13.33-0.02,20,0.01
			c2.6,0.01,4.9-0.16,4.97-3.64c0.07-3.45-2.12-3.86-4.78-3.86c-13.33,0.01-26.67,0.03-40-0.01c-2.6-0.01-4.58,0.68-4.6,3.67
			c-0.02,3.21,2.03,3.91,4.83,3.87C284.65,223.68,291.18,223.74,297.7,223.74z"/>
		<path class="st0" d="M298.15,239.1c6.96,0,13.91-0.03,20.87,0.01c6.93,0.04,11.94,5.05,11.8,11.73
			c-0.14,6.46-5.16,11.28-11.85,11.3c-14.06,0.03-28.11,0.03-42.17,0c-6.67-0.02-11.4-4.87-11.42-11.59
			c-0.02-6.73,4.64-11.4,11.47-11.44C283.96,239.07,291.05,239.1,298.15,239.1z M297.81,246.78c-6.53,0-13.05,0.03-19.58-0.01
			c-2.69-0.02-4.95,0.51-4.93,3.8c0.02,3.16,2.06,3.93,4.85,3.91c13.2-0.05,26.39-0.02,39.59-0.03c2.58,0,4.92-0.35,4.93-3.79
			c0.01-3.39-2.21-3.88-4.85-3.89C311.15,246.78,304.48,246.78,297.81,246.78z"/>
	</g>
</g>
</svg>
