<?xml version="1.0" encoding="utf-8"?>
<!-- Generator: Adobe Illustrator 24.1.3, SVG Export Plug-In . SVG Version: 6.00 Build 0)  -->
<svg version="1.1" id="Layer_1" xmlns="http://www.w3.org/2000/svg" xmlns:xlink="http://www.w3.org/1999/xlink" x="0px" y="0px"
	 viewBox="0 0 360 360" style="enable-background:new 0 0 360 360;" xml:space="preserve">
<style type="text/css">
	.st0{fill:#010101;}
	.st1{fill:none;stroke:#010101;stroke-width:6;stroke-miterlimit:10;}
	.st2{fill:none;stroke:#010101;stroke-width:4;stroke-miterlimit:10;}
	.st3{fill:#FFFFFF;}
</style>
<rect x="97.23" y="58.59" class="st0" width="7.66" height="36.1"/>
<path class="st0" d="M157.78,69.36h0.25V25.29h14.63v64.29h-18.24l-19.48-45.06h-0.25v45.06h-14.63V25.29h18.36L157.78,69.36z"/>
<path class="st0" d="M184.36,25.29h15.93v64.29h-15.93V25.29z"/>
<path class="st0" d="M235.7,25.29l11.26,45.37h0.25l11.39-45.37h23.59v64.29h-14.63V38.24h-0.25l-14.07,51.34h-12.32l-14.07-51.34
	h-0.25v51.34h-14.63V25.29H235.7z"/>
<path class="st0" d="M328.99,25.29l20.91,64.29h-16.62l-3.67-13.63h-21.04l-3.67,13.63h-16.62l20.91-64.29L328.99,25.29
	L328.99,25.29z M326.88,65.37l-7.66-28.88h-0.25l-7.66,28.88H326.88z"/>
<g>
	<g>
		<path class="st0" d="M318.29,35.94c-3.61,10.39-6.72,20.97-9.46,31.62c-0.5,1.93,2.49,2.8,2.99,0.81
			c2.68-10.64,5.85-21.22,9.46-31.62c0.25-0.81-0.31-1.68-1.12-1.93C319.35,34.63,318.6,35.13,318.29,35.94L318.29,35.94z"/>
	</g>
</g>
<g>
	<g>
		<path class="st0" d="M319.22,41.6c0.12,0,0.31,0.12,0.5,0.31c0.25,0.25,0.44,0.62,0.56,0.93c0.37,0.87,0.56,1.8,0.81,2.68
			c0.68,2.49,1.37,4.92,2.05,7.41c1.37,4.92,2.68,9.9,3.92,14.87c0.5,1.93,3.49,1.12,2.99-0.81c-1.37-5.48-2.8-10.89-4.29-16.37
			c-0.75-2.61-1.37-5.23-2.18-7.78c-0.68-2.12-1.93-4.11-4.36-4.36c-0.81-0.06-1.56,0.75-1.56,1.56
			C317.67,40.98,318.41,41.54,319.22,41.6L319.22,41.6z"/>
	</g>
</g>
<g>
	<g>
		<path class="st0" d="M319.59,42.22c1.99,0,1.99-3.11,0-3.11C317.6,39.11,317.6,42.22,319.59,42.22L319.59,42.22z"/>
	</g>
</g>
<g>
	<g>
		<path class="st0" d="M327.69,67.43c1.99,0,1.99-3.11,0-3.11S325.69,67.43,327.69,67.43L327.69,67.43z"/>
	</g>
</g>
<g>
	<g>
		<path class="st0" d="M311.5,67.61c1.99,0,1.99-3.11,0-3.11C309.51,64.5,309.51,67.61,311.5,67.61L311.5,67.61z"/>
	</g>
</g>
<g>
	<g>
		<path class="st0" d="M330.55,76.45c1.99,0,1.99-3.11,0-3.11C328.49,73.34,328.49,76.45,330.55,76.45L330.55,76.45z"/>
	</g>
</g>
<g>
	<g>
		<path class="st0" d="M307.77,76.45c1.99,0,1.99-3.11,0-3.11C305.78,73.34,305.78,76.45,307.77,76.45L307.77,76.45z"/>
	</g>
</g>
<line class="st1" x1="245.22" y1="67.43" x2="260.41" y2="26.23"/>
<line class="st1" x1="251.76" y1="88.4" x2="269.56" y2="40.67"/>
<line class="st1" x1="234.21" y1="26.6" x2="250.76" y2="67.93"/>
<line class="st1" x1="224.12" y1="40.04" x2="242.48" y2="87.16"/>
<line class="st1" x1="133.63" y1="48.26" x2="155.79" y2="88.28"/>
<line class="st1" x1="137.55" y1="27.53" x2="160.52" y2="68.73"/>
<g>
	<g>
		<path class="st0" d="M223.5,40.17c1.37,0.56,2.49,1.68,3.49,2.8c1.12,1.24,2.05,2.55,2.86,3.98c1.62,2.86,2.74,6.04,3.55,9.21
			c0.87-0.5,1.74-1,2.61-1.49c-3.8-4.17-4.98-9.96-8.34-14.44c-0.5-0.62-1.18-1-1.93-0.62c-0.62,0.25-1.18,1.12-0.93,1.8
			c1.18,2.86,2.61,5.6,4.42,8.09c0.44,0.62,1.18,1,1.93,0.62c0.62-0.25,1.18-1.12,0.93-1.8c-1.62-4.11-3.11-8.22-4.48-12.38
			c-0.62-1.93-3.61-1.12-2.99,0.81c1.37,4.17,2.86,8.34,4.48,12.38c0.93-0.37,1.87-0.81,2.86-1.18c-1.68-2.3-3.05-4.73-4.11-7.34
			c-0.93,0.37-1.87,0.81-2.86,1.18c3.55,4.67,4.79,10.7,8.84,15.06c1.06,1.18,2.99-0.06,2.61-1.49c-0.93-3.61-2.18-7.22-4.11-10.39
			c-1.87-3.17-4.42-6.35-7.9-7.78c-0.75-0.31-1.74,0.37-1.93,1.12C222.13,39.11,222.69,39.86,223.5,40.17L223.5,40.17z"/>
	</g>
</g>
<g>
	<g>
		<path class="st0" d="M242.73,65.12c0.68,1.56,1.68,2.99,2.8,4.29c0.5,0.56,1.49,0.56,2.05,0.12c0.62-0.5,0.75-1.31,0.37-1.99
			c-3.05-6.78-6.1-13.51-9.15-20.23c-0.44,0.75-0.87,1.56-1.37,2.36c-0.37,0-0.12-0.12-0.12,0s0.37,0.62,0.44,0.68
			c0.31,0.56,0.62,1.06,1,1.56c0.62,1,1.24,1.99,1.87,3.05c1.24,2.05,2.55,4.11,3.8,6.16c1.06,1.68,2.3,3.49,2.49,5.48
			c0.19,1.8-0.68,3.42-2.05,4.54c0.87,0.5,1.74,1,2.61,1.49c0.25-1.06,0.5-2.18,0.75-3.24c0.44-1.93-2.55-2.8-2.99-0.81
			c-0.25,1.06-0.5,2.18-0.75,3.24c-0.37,1.62,1.43,2.43,2.61,1.49c1.87-1.49,2.99-3.86,2.99-6.22c0-2.68-1.43-5.04-2.8-7.28
			c-1.49-2.43-3.05-4.92-4.54-7.34c-0.75-1.24-1.49-2.43-2.3-3.67c-0.68-1.18-1.49-2.3-2.99-2.3c-1.24,0-1.8,1.31-1.37,2.36
			c3.05,6.78,6.1,13.51,9.15,20.23c0.81-0.62,1.62-1.24,2.43-1.87c-0.93-1.12-1.68-2.36-2.3-3.67c-0.37-0.75-1.43-0.93-2.12-0.56
			C242.48,63.44,242.36,64.38,242.73,65.12L242.73,65.12z"/>
	</g>
</g>
<g>
	<g>
		<path class="st0" d="M268.87,35.44c-3.11,5.04-6.16,10.21-9.09,15.31c-1,1.74,1.62,3.24,2.68,1.56
			c3.24-5.04,6.35-10.14,9.21-15.37c0.93-1.74-1.74-3.36-2.68-1.56c-2.86,5.23-5.91,10.39-9.21,15.37c0.87,0.5,1.8,1.06,2.68,1.56
			c2.99-5.17,6.04-10.27,9.09-15.31C272.61,35.25,269.93,33.7,268.87,35.44L268.87,35.44z"/>
	</g>
</g>
<g>
	<g>
		<path class="st0" d="M150.37,63.88c4.23,1.74,7.72,4.98,9.83,9.02c0.44-0.75,0.87-1.56,1.37-2.36c0.12,0.06,0.31,0.12,0.5,0.19
			c-0.06-0.06-0.06-0.06-0.12-0.12c-0.06-0.12-0.19-0.25-0.31-0.31c-0.25-0.25-0.5-0.56-0.68-0.81c-0.5-0.56-0.93-1.12-1.37-1.62
			c-0.93-1.12-1.93-2.24-2.86-3.42c-0.93-1.12-1.87-2.18-2.8-3.3c-0.62-0.75-1.62-1.62-1.56-2.68c0.06-1.99-3.05-1.99-3.11,0
			c-0.06,1.62,0.87,2.93,1.87,4.11c1.12,1.37,2.24,2.68,3.42,4.05c1.12,1.31,2.18,2.61,3.3,3.92c1,1.18,2.05,3.11,3.8,3.17
			c1.24,0.06,1.87-1.37,1.37-2.36c-2.49-4.79-6.72-8.4-11.7-10.46c-0.75-0.31-1.74,0.37-1.93,1.12
			C149.07,62.88,149.57,63.57,150.37,63.88L150.37,63.88z"/>
	</g>
</g>
<g>
	<g>
		<path class="st0" d="M129.53,37.12c2.24,2.74,3.05,6.41,4.36,9.58c1.49,3.67,3.3,7.09,5.48,10.39c0.81-0.62,1.62-1.24,2.43-1.87
			c-2.05-1.62-3.42-3.86-4.61-6.16c-1.43-2.74-2.74-5.48-4.11-8.22c-0.87-1.8-3.55-0.25-2.68,1.56c1.37,2.8,2.74,5.66,4.23,8.46
			c1.31,2.43,2.8,4.85,4.98,6.6c0.62,0.5,1.37,0.62,2.05,0.12c0.56-0.44,0.81-1.37,0.37-1.99c-2.18-3.3-3.98-6.78-5.48-10.46
			c-1.37-3.55-2.43-7.22-4.85-10.21c-0.56-0.68-1.62-0.56-2.18,0C128.84,35.56,128.97,36.5,129.53,37.12L129.53,37.12z"/>
	</g>
</g>
<path class="st0" d="M36.17,25.29L47.5,70.66h0.25l11.39-45.37h23.59v64.29H68.1V38.24h-0.25L53.78,89.58H41.4L27.33,38.24h-0.25
	v51.34H12.46V25.29H36.17z"/>
<line class="st1" x1="45.63" y1="67.43" x2="60.88" y2="26.23"/>
<line class="st1" x1="52.23" y1="88.4" x2="70.03" y2="40.67"/>
<line class="st1" x1="34.68" y1="26.6" x2="51.23" y2="67.93"/>
<line class="st1" x1="24.6" y1="40.04" x2="42.96" y2="87.16"/>
<g>
	<g>
		<path class="st0" d="M23.91,40.17c1.37,0.56,2.49,1.68,3.49,2.8c1.12,1.24,2.05,2.55,2.86,3.98c1.62,2.86,2.74,6.04,3.55,9.21
			c0.87-0.5,1.74-1,2.61-1.49c-3.8-4.17-4.98-9.96-8.34-14.44c-0.5-0.62-1.18-1-1.93-0.62c-0.62,0.25-1.18,1.12-0.93,1.8
			c1.12,2.86,2.61,5.6,4.42,8.09c0.44,0.62,1.18,1,1.93,0.62c0.62-0.25,1.18-1.12,0.87-1.8c-1.62-4.11-3.11-8.22-4.48-12.38
			c-0.62-1.93-3.61-1.12-2.99,0.81c1.37,4.17,2.86,8.34,4.48,12.38c0.93-0.37,1.93-0.81,2.86-1.18c-1.68-2.3-3.05-4.73-4.11-7.34
			c-0.93,0.37-1.87,0.81-2.86,1.18c3.55,4.67,4.79,10.7,8.84,15.06c1.06,1.18,2.99-0.06,2.61-1.49c-0.93-3.61-2.18-7.22-4.11-10.39
			c-1.87-3.17-4.42-6.35-7.9-7.78c-0.75-0.31-1.74,0.37-1.93,1.12C22.6,39.11,23.16,39.86,23.91,40.17L23.91,40.17z"/>
	</g>
</g>
<g>
	<g>
		<path class="st0" d="M43.2,65.12c0.75,1.56,1.68,2.99,2.8,4.29c0.5,0.56,1.49,0.56,2.05,0.12c0.62-0.5,0.75-1.31,0.37-1.99
			c-3.05-6.78-6.1-13.51-9.15-20.23c-0.44,0.75-0.87,1.56-1.37,2.36c-0.37,0-0.12-0.12-0.12,0s0.37,0.62,0.44,0.68
			c0.31,0.56,0.62,1.06,1,1.56c0.62,1,1.24,1.99,1.87,3.05c1.31,2.05,2.55,4.11,3.8,6.16c1.06,1.68,2.3,3.49,2.49,5.48
			c0.19,1.8-0.68,3.42-2.05,4.54c0.87,0.5,1.74,1,2.61,1.49c0.25-1.06,0.5-2.18,0.75-3.24c0.44-1.93-2.55-2.8-2.99-0.81
			c-0.25,1.06-0.5,2.18-0.75,3.24c-0.37,1.62,1.43,2.43,2.61,1.49c1.87-1.49,2.99-3.86,2.99-6.22c0-2.68-1.43-5.04-2.8-7.28
			c-1.49-2.43-3.05-4.92-4.54-7.34c-0.75-1.24-1.49-2.43-2.3-3.67c-0.68-1.18-1.49-2.3-2.99-2.3c-1.24,0-1.8,1.31-1.37,2.36
			c3.05,6.78,6.1,13.51,9.15,20.23c0.81-0.62,1.62-1.24,2.43-1.87c-0.93-1.12-1.68-2.36-2.3-3.67c-0.37-0.75-1.43-0.93-2.12-0.56
			C42.96,63.44,42.83,64.38,43.2,65.12L43.2,65.12z"/>
	</g>
</g>
<g>
	<g>
		<path class="st0" d="M69.34,35.44c-3.11,5.04-6.16,10.21-9.15,15.31c-1,1.74,1.62,3.24,2.68,1.56c3.24-5.04,6.35-10.14,9.21-15.37
			c1-1.74-1.74-3.36-2.68-1.56c-2.86,5.23-5.97,10.39-9.21,15.37c0.87,0.5,1.8,1.06,2.68,1.56c2.99-5.17,6.04-10.27,9.09-15.31
			C73.08,35.25,70.4,33.7,69.34,35.44L69.34,35.44z"/>
	</g>
</g>
<circle class="st0" cx="100.96" cy="50.06" r="3.67"/>
<path class="st0" d="M148.2,146.4l31.86,128.14h0.62l32.24-128.14h66.59v181.54h-41.26V183.06h-0.62l-39.71,144.95h-35.04
	l-39.71-144.95h-0.62v144.95H81.29V146.4H148.2z"/>
<line class="st1" x1="174.96" y1="265.28" x2="217.9" y2="148.96"/>
<line class="st1" x1="193.5" y1="324.59" x2="243.79" y2="189.85"/>
<line class="st1" x1="143.9" y1="150.14" x2="190.7" y2="266.71"/>
<line class="st1" x1="115.46" y1="188.1" x2="167.3" y2="320.98"/>
<g>
	<g>
		<path class="st0" d="M124.55,196.75c-0.25-0.25-0.56-0.56-0.81-0.81c-1.06-1.06-3.17,0-2.61,1.49c2.36,6.35,5.1,13.07,10.58,17.43
			c1.37,1.06,3.24-0.25,2.43-1.87c-1.06-2.12-2.05-4.23-3.11-6.35c-1-2.05-2.18-4.11-2.99-6.22c-0.75-1.93-1.06-4.11-2.12-5.91
			c-0.87-1.49-2.36-2.61-3.05-4.23c-0.31-0.75-1-1.31-1.93-1.12c-0.75,0.19-1.37,1.12-1.12,1.93c3.11,7.9,7.22,15.31,12.2,22.16
			c0.44,0.62,1.18,1,1.93,0.62c0.62-0.31,1.18-1.12,0.87-1.87c-4.67-11.51-8.9-23.21-12.7-35.04c-0.62-1.87-3.61-1.12-2.99,0.81
			c3.8,11.82,8.03,23.53,12.7,35.04c0.93-0.37,1.93-0.81,2.86-1.18c-4.85-6.6-8.9-13.82-11.89-21.47c-1,0.25-1.99,0.56-2.99,0.81
			c0.75,1.8,2.12,3.05,3.17,4.67c1.12,1.68,1.37,3.86,2.12,5.73c0.87,2.18,2.05,4.29,3.05,6.41c1.06,2.24,2.18,4.42,3.24,6.66
			c0.81-0.62,1.62-1.24,2.43-1.87c-5.1-4.05-7.66-10.14-9.83-16.06c-0.87,0.5-1.74,1-2.61,1.49c0.25,0.25,0.56,0.56,0.81,0.81
			C123.8,200.43,125.98,198.19,124.55,196.75L124.55,196.75z"/>
	</g>
</g>
<g>
	<g>
		<path class="st0" d="M170.41,257.43c1.87,4.17,4.42,8.09,7.41,11.58c0.5,0.56,1.49,0.56,2.05,0.12c0.62-0.5,0.75-1.31,0.37-1.99
			c-6.72-14.87-13.44-29.75-20.16-44.56c-1.87-4.23-3.8-8.4-5.73-12.57c-0.44,0.75-0.87,1.56-1.37,2.36
			c0.81-0.06,1.31,0.44,1.8,1.06c0.75,1,1.37,2.12,1.99,3.17c1.49,2.43,2.99,4.85,4.48,7.22c2.93,4.79,5.91,9.58,8.84,14.38
			c2.86,4.67,5.85,9.21,8.53,13.94c2.3,4.11,4.29,8.65,3.98,13.51c-0.25,4.67-2.68,9.34-6.41,12.2c0.75,0.56,1.56,1.18,2.3,1.74
			c0.68-3.05,1.37-6.1,2.05-9.15c0.44-1.93-2.55-2.8-2.99-0.81c-0.68,3.05-1.37,6.1-2.05,9.15c-0.25,1.18,1.12,2.61,2.3,1.74
			c3.86-2.99,6.66-7.28,7.59-12.07c1-5.29-0.37-10.46-2.68-15.19c-2.49-5.1-5.73-9.83-8.71-14.63c-3.17-5.17-6.41-10.33-9.58-15.56
			c-1.74-2.86-3.55-5.73-5.29-8.59c-1.37-2.18-3.11-5.6-6.22-5.29c-1.24,0.12-1.87,1.18-1.37,2.36
			c6.72,14.87,13.44,29.75,20.16,44.56c1.87,4.23,3.8,8.4,5.73,12.57c0.81-0.62,1.62-1.24,2.43-1.87c-2.8-3.3-5.1-6.97-6.91-10.95
			c-0.31-0.75-1.43-0.93-2.12-0.56C170.17,255.75,170.1,256.62,170.41,257.43L170.41,257.43z"/>
	</g>
</g>
<g>
	<g>
		<path class="st0" d="M244.35,176.46c-6.85,11.2-13.57,22.4-20.16,33.73c-1.87,3.17-3.73,6.35-5.54,9.58
			c-1,1.74,1.62,3.24,2.68,1.56c7.16-11.02,14-22.28,20.54-33.67c1.87-3.24,3.67-6.47,5.41-9.71c0.93-1.74-1.74-3.36-2.68-1.56
			c-6.35,11.51-13.01,22.9-19.98,34.04c-1.99,3.17-3.98,6.29-5.97,9.4c0.87,0.5,1.8,1.06,2.68,1.56
			c6.53-11.33,13.19-22.65,19.98-33.86c1.93-3.17,3.8-6.29,5.73-9.46C248.09,176.28,245.35,174.72,244.35,176.46L244.35,176.46z"/>
	</g>
</g>
<g>
	<g>
		<path class="st0" d="M121.75,188.48c1,5.79,3.49,11.14,7.16,15.68c0.44,0.56,1.31,0.56,1.87,0.25c0.62-0.37,0.87-1.06,0.68-1.74
			c-0.5-2.8-1.93-5.35-4.05-7.28c-1.12-1.06-2.99,0-2.61,1.49c1.99,8.4,5.73,16.43,11.02,23.28c0.81-0.62,1.62-1.24,2.43-1.87
			c-4.23-4.54-8.53-9.02-12.76-13.57c-1.18-1.24-3.42,0.37-2.43,1.87c4.05,6.04,7.28,12.57,9.46,19.48
			c0.93-0.37,1.93-0.81,2.86-1.18c-2.24-4.61-4.42-9.27-6.66-13.88c-0.81-1.62-3.24-0.44-2.86,1.18c0.62,2.55,1.62,5.04,2.8,7.41
			c0.62,1.18,1.31,2.3,2.12,3.42c0.68,0.93,1.49,1.87,1.93,2.93c0.44,1.18-0.19,2.3-0.06,3.55c0.06,1.43,0.68,2.8,1.12,4.11
			c1,2.86,1.99,5.73,2.99,8.59c0.56,1.56,1.06,3.11,1.62,4.67c0.5,1.43,0.93,2.93,2.18,3.92c1.18,0.93,2.99,0.12,2.61-1.49
			c-1.93-8.4-4.48-16.62-7.59-24.58c-0.25-0.62-0.75-1.12-1.49-1.12c-0.62,0-1.43,0.5-1.49,1.12c-0.31,2.43,0.31,4.73,2.05,6.47
			c1.24,1.24,3.36-0.37,2.43-1.87c-5.48-9.09-11.08-18.36-13.32-28.82c-1,0.25-1.99,0.56-2.99,0.81
			c3.8,9.15,11.14,15.87,18.42,22.28c1.49,1.31,3.67-0.81,2.18-2.18c-2.36-2.3-4.98-4.36-7.72-6.1c-0.68-0.44-1.74-0.19-2.12,0.56
			c-0.62,1.18-0.68,2.61,0.12,3.73c0.5,0.68,1.37,1,2.12,0.56c0.68-0.37,1.06-1.43,0.56-2.12c-0.12-0.19-0.25-0.37-0.12-0.62
			c-0.68,0.19-1.43,0.37-2.12,0.56c2.55,1.62,4.92,3.49,7.09,5.6c0.75-0.75,1.49-1.49,2.18-2.18c-6.78-5.97-14.07-12.32-17.61-20.91
			c-0.31-0.75-1.06-1.31-1.93-1.12c-0.87,0.25-1.24,1.12-1.12,1.93c2.24,10.77,8.03,20.29,13.63,29.56
			c0.81-0.62,1.62-1.24,2.43-1.87c-0.87-0.87-1.43-2.18-1.24-3.42c-1,0-1.99,0-2.99,0c3.11,8.03,5.66,16.24,7.59,24.58
			c0.87-0.5,1.74-1,2.61-1.49c-0.87-0.68-1.12-1.8-1.43-2.8c-0.5-1.43-1-2.8-1.43-4.23c-0.93-2.8-1.93-5.54-2.86-8.34
			c-0.37-1.18-1-2.49-1.18-3.73c-0.06-0.56,0.12-1.12,0.19-1.74c0.12-0.68,0.06-1.37-0.06-2.05c-0.5-2.43-2.55-4.36-3.8-6.41
			c-1.49-2.49-2.55-5.1-3.24-7.9c-0.93,0.37-1.93,0.81-2.86,1.18c2.24,4.61,4.42,9.27,6.66,13.88c0.75,1.56,3.36,0.5,2.86-1.18
			c-2.3-7.16-5.6-14-9.77-20.23c-0.81,0.62-1.62,1.24-2.43,1.87c4.23,4.54,8.53,9.02,12.76,13.57c0.56,0.56,1.43,0.56,2.05,0.12
			c0.56-0.44,0.87-1.37,0.37-1.99c-5.1-6.72-8.78-14.38-10.7-22.53c-0.87,0.5-1.74,1-2.61,1.49c1.74,1.62,2.8,3.61,3.24,5.91
			c0.87-0.5,1.74-1,2.61-1.49c-3.3-4.11-5.48-9.09-6.35-14.31c-0.12-0.81-1.18-1.31-1.93-1.12
			C121.93,186.8,121.56,187.61,121.75,188.48L121.75,188.48z"/>
	</g>
</g>
<g>
	<g>
		<path class="st0" d="M196.31,256.69c-7.34,5.85-14.69,11.7-22.09,17.55c0.81,0.62,1.62,1.24,2.43,1.87
			c4.48-9.9,11.14-18.48,17.8-26.95c0.5-0.62,0.62-1.37,0.12-2.05c-0.44-0.56-1.37-0.81-1.99-0.37
			c-9.34,6.22-17.49,14.13-24.09,23.28c-0.44,0.62-0.19,1.56,0.37,1.99c0.62,0.5,1.43,0.37,2.05-0.12
			c5.6-4.79,11.45-9.34,17.43-13.63c0.68-0.5,1-1.37,0.56-2.12c-0.37-0.68-1.43-1.06-2.12-0.56c-6.22,4.42-12.26,9.15-18.05,14.13
			c0.81,0.62,1.62,1.24,2.43,1.87c6.22-8.71,14.07-16.24,22.97-22.16c-0.62-0.81-1.24-1.62-1.87-2.43
			c-6.85,8.65-13.69,17.43-18.3,27.57c-0.75,1.62,1.06,2.99,2.43,1.87c7.34-5.85,14.69-11.7,22.09-17.55c0.68-0.5,0.56-1.68,0-2.18
			C197.86,256,196.99,256.13,196.31,256.69L196.31,256.69z"/>
	</g>
</g>
<g>
	<g>
		<path class="st0" d="M188.46,243.49c-6.53,3.49-13.07,6.91-19.67,10.39c2.12,3.61,4.17,7.16,6.29,10.77
			c2.24-1.24,4.48-2.3,6.85-3.3c-0.5,0.19-1,0.44-1.49,0.62c5.54-2.3,11.33-3.98,17.24-4.85c-1.62-3.8-3.17-7.59-4.79-11.39
			c-4.05,2.93-7.9,6.1-11.45,9.65c-3.49,3.49-6.66,7.34-9.58,11.33c-1.49,2.12-2.93,4.23-4.29,6.47c-1.37,2.3-1.06,5.73,1,7.53
			c0.81,0.75,1.74,1.24,2.74,1.62c1.37,0.44,3.55,0.19,4.79-0.62c5.41-3.67,10.7-7.66,15.87-11.76c1.18-0.93,1.8-2.99,1.8-4.42
			c0-1.56-0.68-3.36-1.8-4.42c-1.18-1.12-2.74-1.87-4.42-1.8c-0.56,0.06-1.12,0.12-1.68,0.25c-1.06,0.31-1.99,0.81-2.74,1.62
			c-1,0.81-1.99,1.62-3.05,2.36c0.44-0.31,0.87-0.62,1.24-1c-3.73,2.93-7.59,5.73-11.58,8.4c2.86,2.86,5.66,5.66,8.53,8.53
			c1.74-2.93,3.67-5.73,5.79-8.46c-0.31,0.44-0.62,0.81-1,1.24c4.42-5.66,9.52-10.77,15.19-15.19c-0.44,0.31-0.87,0.62-1.24,1
			c0.68-0.56,1.37-1.06,2.12-1.56c1.31-0.93,2.49-2.05,2.86-3.73c0.31-1.37,0.25-2.74-0.31-4.05c-0.5-1.18-1.37-2.36-2.55-2.99
			c-0.5-0.19-1-0.44-1.49-0.62c-1.12-0.31-2.18-0.31-3.3,0c-8.96,1.37-17.61,4.48-25.52,8.78c-2.86,1.56-4.05,5.73-2.24,8.53
			c1.87,2.93,5.41,3.86,8.53,2.24c6.53-3.49,13.07-6.91,19.67-10.39c2.86-1.56,3.98-5.79,2.24-8.53
			C195.12,242.81,191.58,241.87,188.46,243.49L188.46,243.49z"/>
	</g>
</g>
<g>
	<g>
		<path class="st0" d="M193.94,212.44c-2.05,4.92-3.86,9.96-5.35,15.06c-0.75,2.55-1.43,5.1-2.05,7.72
			c-0.56,2.49-1.18,4.98-2.12,7.34c0.19-0.5,0.44-1,0.62-1.49c-1.56,3.61-4.29,6.72-5.1,10.7c-0.31,1.68-0.25,3.3,0.62,4.79
			c0.75,1.31,2.24,2.49,3.73,2.86c1.62,0.37,3.36,0.31,4.79-0.62c1.31-0.81,2.55-2.12,2.86-3.73c0.12-0.75,0.37-1.43,0.62-2.18
			c-0.19,0.5-0.44,1-0.62,1.49c0.93-2.18,2.36-4.05,3.42-6.16c1.31-2.74,2.18-5.54,2.86-8.46c1.24-5.23,2.68-10.39,4.42-15.43
			c1-2.93,2.12-5.79,3.3-8.59c0.56-1.37,0.06-3.55-0.62-4.79c-0.75-1.31-2.24-2.49-3.73-2.86c-1.62-0.37-3.36-0.31-4.79,0.62
			c-0.44,0.31-0.87,0.62-1.24,1C194.81,210.45,194.25,211.38,193.94,212.44L193.94,212.44z"/>
	</g>
</g>
<g>
	<g>
		<path class="st0" d="M153.8,202.67c-0.44,3.67,0.87,7.28,2.24,10.58c1.12,2.55,2.36,5.1,3.55,7.66
			c2.43,5.23,4.73,10.46,6.97,15.75c-0.19-0.5-0.44-1-0.62-1.49c2.43,5.73,4.67,11.45,6.85,17.3c0.56,1.56,1.37,2.86,2.86,3.73
			c1.31,0.75,3.3,1.12,4.79,0.62c1.49-0.5,2.99-1.43,3.73-2.86s1.18-3.24,0.62-4.79c-4.11-11.33-8.84-22.4-13.88-33.3
			c-1.37-2.99-2.86-5.85-4.11-8.9c0.19,0.5,0.44,1,0.62,1.49c-0.62-1.49-1.18-3.05-1.37-4.67c0.06,0.56,0.12,1.12,0.25,1.68
			c-0.12-0.93-0.12-1.87,0-2.8c0.19-1.49-0.81-3.42-1.8-4.42c-1.06-1.06-2.86-1.87-4.42-1.8c-1.62,0.06-3.3,0.62-4.42,1.8
			c-0.31,0.44-0.62,0.87-1,1.24C154.11,200.49,153.86,201.55,153.8,202.67L153.8,202.67z"/>
	</g>
</g>
<g>
	<g>
		<path class="st0" d="M237.13,179.33c-4.98,7.84-8.46,16.62-11.64,25.33c-3.17,8.84-6.1,17.74-9.15,26.57
			c-1.8,5.17-3.55,10.39-5.35,15.62c-0.5,1.49-0.12,3.49,0.62,4.79s2.24,2.49,3.73,2.86c3.49,0.81,6.53-1.06,7.66-4.36
			c4.73-13.75,9.34-27.57,14.19-41.26c1.31-3.61,2.61-7.22,4.11-10.7c-0.19,0.5-0.44,1-0.62,1.49c2.05-4.85,4.42-9.58,7.22-14.07
			c1.74-2.74,0.68-6.97-2.24-8.53C242.55,175.47,239,176.4,237.13,179.33L237.13,179.33z"/>
	</g>
</g>
<g>
	<g>
		<path class="st0" d="M211.55,153.19c-6.04,16.43-11.2,33.11-15.31,50.1c-1.18,4.79-2.24,9.58-3.3,14.44
			c-0.31,1.62-0.25,3.3,0.62,4.79c0.75,1.31,2.24,2.49,3.73,2.86c1.62,0.37,3.36,0.31,4.79-0.62c1.31-0.87,2.55-2.12,2.86-3.73
			c3.61-17.11,8.15-33.98,13.69-50.6c1.56-4.67,3.17-9.34,4.92-13.94c0.56-1.43,0.12-3.49-0.62-4.79c-0.75-1.31-2.24-2.49-3.73-2.86
			c-1.62-0.37-3.36-0.31-4.79,0.62C212.98,150.39,212.18,151.63,211.55,153.19L211.55,153.19z"/>
	</g>
</g>
<g>
	<g>
		<path class="st0" d="M136.87,154.93c0.56,3.98,1.24,7.84,2.43,11.64c0.5,1.56,1.43,2.93,2.86,3.73c1.31,0.75,3.3,1.12,4.79,0.62
			c1.49-0.5,2.93-1.43,3.73-2.86c0.19-0.5,0.44-1,0.62-1.49c0.31-1.12,0.31-2.18,0-3.3c-0.44-2.55-0.81-5.17-1.24-7.72
			c-3.98,1.12-8.03,2.18-12.01,3.3c5.1,12.88,9.9,25.95,14.25,39.08c1.24,3.73,2.49,7.53,3.67,11.26c0.5,1.56,1.43,2.93,2.86,3.73
			c1.31,0.75,3.3,1.12,4.79,0.62c3.11-1,5.41-4.36,4.36-7.66c-4.17-13.26-8.71-26.33-13.63-39.33c-1.37-3.67-2.8-7.41-4.29-11.08
			c-0.62-1.56-1.37-2.86-2.86-3.73c-1.31-0.75-3.3-1.12-4.79-0.62c-1.49,0.5-2.99,1.43-3.73,2.86c-0.19,0.5-0.44,1-0.62,1.49
			c-0.31,1.12-0.31,2.18,0,3.3c0.44,2.55,0.81,5.17,1.24,7.72c3.98-1.12,8.03-2.18,12.01-3.3c-1-3.17-1.74-6.41-2.18-9.71
			c0.06,0.56,0.12,1.12,0.25,1.68c0-0.12,0-0.19-0.06-0.31c0.06-0.87-0.12-1.68-0.56-2.43c-0.25-0.75-0.68-1.43-1.31-1.99
			c-1.06-1.06-2.86-1.87-4.42-1.8c-1.62,0.06-3.3,0.62-4.42,1.8C137.68,151.63,136.68,153.38,136.87,154.93L136.87,154.93z"/>
	</g>
</g>
<line class="st2" x1="147.08" y1="147.34" x2="184.36" y2="249.28"/>
<line class="st2" x1="121" y1="216.23" x2="164.13" y2="327.32"/>
<line class="st2" x1="241.24" y1="210.69" x2="197.24" y2="325.77"/>
<line class="st2" x1="214.17" y1="147.03" x2="178.82" y2="238.76"/>
<g>
	<g>
		<path class="st0" d="M232.22,221.52c-2.43,11.14-6.78,21.78-10.95,32.36c-4.29,10.89-8.59,21.78-12.95,32.67
			c-2.49,6.16-4.92,12.32-7.41,18.48c-0.31,0.75,0.31,1.74,1.12,1.93c0.87,0.25,1.62-0.31,1.93-1.12
			c4.42-10.89,8.78-21.84,13.13-32.8c4.29-10.77,8.65-21.53,12.7-32.36c2.24-5.97,4.17-12.07,5.54-18.36
			C235.64,220.4,232.65,219.59,232.22,221.52L232.22,221.52z"/>
	</g>
</g>
<g>
	<g>
		<path class="st0" d="M235.45,212.06c-1.62,4.23-3.3,8.46-4.92,12.7c-0.31,0.81,0.31,1.68,1.12,1.93c0.87,0.25,1.62-0.31,1.93-1.12
			c2.3-5.6,5.35-10.83,8.34-16.06c0.37-0.62,0.25-1.37-0.25-1.87c-0.56-0.56-1.24-0.5-1.87-0.25c-1.37,0.62-2.3,1.87-3.11,3.11
			c-0.93,1.49-1.8,3.05-2.68,4.61c-0.37,0.68-0.81,1.37-1,2.18c-0.19,0.81,0,1.56-0.06,2.36c-0.19,1.49-1.18,2.86-1.99,4.05
			c0.87,0.5,1.8,1.06,2.68,1.56c1.74-2.61,3.17-5.41,4.42-8.34c-1-0.25-1.99-0.56-2.99-0.81c-1.18,2.99-2.36,5.97-3.55,8.96
			c-0.62,1.62,2.05,2.74,2.86,1.18c0.12-0.25,0.25-0.5,0.37-0.68c0.93-1.74-1.74-3.36-2.68-1.56c-0.12,0.25-0.25,0.5-0.37,0.68
			c0.93,0.37,1.87,0.81,2.86,1.18c1.18-2.99,2.36-5.97,3.55-8.96c0.31-0.75-0.31-1.74-1.12-1.93c-0.87-0.25-1.62,0.31-1.93,1.12
			c-1.12,2.68-2.49,5.23-4.11,7.59c-0.5,0.68-0.12,1.74,0.56,2.12c0.75,0.44,1.62,0.12,2.12-0.56c0.87-1.24,1.68-2.55,2.18-3.98
			c0.25-0.75,0.31-1.56,0.31-2.3c-0.06-0.75,0-1.06,0.37-1.74c0.75-1.43,1.56-2.86,2.43-4.23c0.68-1.12,1.24-2.36,2.49-2.86
			c-0.68-0.68-1.43-1.43-2.12-2.12c-3.17,5.48-6.29,10.95-8.65,16.8c1,0.25,1.99,0.56,2.99,0.81c1.62-4.23,3.3-8.46,4.92-12.7
			c0.31-0.81-0.31-1.68-1.12-1.93C236.51,210.76,235.76,211.25,235.45,212.06L235.45,212.06z"/>
	</g>
</g>
<g>
	<g>
		<path class="st0" d="M124.42,214.43c0-1.18-0.25-2.18-0.68-3.24c-0.75-1.68-3.24-0.44-2.86,1.18c1.74,7.41,6.35,13.69,8.71,20.85
			c0.75-0.56,1.49-1.18,2.3-1.74c-0.75-0.56-1.56-1.18-2.12-1.93c-0.56-0.75-0.75-1.62-0.93-2.55c-0.37-1.99-0.81-3.86-2.55-5.1
			c-0.68-0.5-1.74-0.12-2.12,0.56c-0.44,0.81-0.12,1.62,0.56,2.12c0.5,0.37,0.68,1.12,0.81,1.74c0.25,0.93,0.31,1.87,0.62,2.74
			c0.68,2.3,2.36,3.73,4.23,5.1c1.12,0.81,2.68-0.56,2.3-1.74c-2.36-7.16-6.97-13.44-8.71-20.85c-0.93,0.37-1.93,0.81-2.86,1.18
			c0.25,0.56,0.31,1.12,0.31,1.68C121.25,216.42,124.36,216.42,124.42,214.43L124.42,214.43z"/>
	</g>
</g>
<g>
	<g>
		<path class="st0" d="M127.29,232.1c4.23,10.08,8.46,20.16,12.63,30.25c0.75,1.87,3.36,1.18,2.99-0.81
			c-0.93-5.66-2.86-11.14-4.61-16.55c-0.93-2.8-1.87-5.66-2.74-8.46c-0.75-2.24-1.68-4.54-4.11-5.29c-1.93-0.62-2.74,2.43-0.81,2.99
			c0.75,0.25,1.18,1.06,1.49,1.74c0.44,1,0.68,2.05,1.06,3.11c0.87,2.61,1.74,5.29,2.55,7.9c1.68,5.04,3.36,10.14,4.23,15.43
			c1-0.25,1.99-0.56,2.99-0.81c-4.17-10.08-8.4-20.16-12.63-30.25c-0.31-0.75-1-1.31-1.93-1.12
			C127.66,230.42,126.97,231.36,127.29,232.1L127.29,232.1z"/>
	</g>
</g>
<g>
	<g>
		<path class="st0" d="M129.09,233.04c1.56,4.79,3.49,9.4,5.85,13.82c1.18,2.18,2.43,4.29,3.8,6.35c1.37,2.05,2.8,3.98,3.55,6.41
			c0.87,2.93,1.56,5.85,2.36,8.78c0.5-0.62,1-1.31,1.49-1.99c-1-0.06-1.68-1.24-2.12-2.05c-0.68-1.18-1.24-2.43-2.3-3.36
			c-1.37-1.24-3.11,0.31-2.43,1.87c2.36,5.41,5.35,10.58,8.78,15.43c1,1.43,3.24,0.62,2.86-1.18c-0.56-2.55-1.8-4.85-3.55-6.78
			c-0.44-0.5-1.31-0.56-1.87-0.25c-0.62,0.37-0.81,1.06-0.68,1.74c0.5,3.05,1.62,5.91,3.24,8.53c0.93,1.43,3.36,0.56,2.86-1.18
			c-0.75-2.68-2.12-5.04-3.86-7.16c-0.44-0.5-1.31-0.56-1.87-0.25c-0.62,0.37-0.81,1.06-0.68,1.74c0.44,2.36,1.31,4.67,2.55,6.72
			c1.06,1.74,3.61,0.19,2.68-1.56c-1.43-2.68-2.86-5.35-4.29-8.03c-0.87,0.5-1.8,1.06-2.68,1.56c2.36,4.29,4.98,8.4,7.9,12.32
			c0.5,0.68,1.37,1,2.12,0.56c0.75-0.44,1-1.37,0.56-2.12c-0.81-1.37-1.74-2.68-2.86-3.8c-0.87-0.87-2.24-0.44-2.61,0.68
			c-0.37,1.18-0.12,2.36,0.31,3.49c0.5,1.12,1,2.3,1.49,3.36c1.06,2.18,2.18,4.29,3.49,6.29c1.06,1.68,3.73,0.19,2.68-1.56
			c-1.62-2.8-3.3-5.6-4.98-8.4c-1-1.74-3.61-0.19-2.68,1.56c1.99,3.8,4.17,7.47,6.47,11.08c0.44,0.68,1.37,1,2.12,0.56
			c0.81-0.5,0.87-1.37,0.56-2.12c-0.68-1.68-1.8-3.17-3.17-4.36c-0.93-0.81-2.74-0.37-2.68,1.12c0.12,1.93,0.87,3.67,2.24,5.04
			c1.06,1.06,3.11,0,2.61-1.49c-0.37-1.12-0.93-2.05-1.68-2.93c-0.87-0.93-2.8-0.25-2.68,1.12c0.19,1.87,1,3.42,1.99,4.92
			c0.81,1.24,1.8,2.74,1.31,4.29c1,0,1.99,0,2.99,0c-1.93-4.61-3.42-9.4-4.42-14.31c-0.12-0.68-0.87-1.12-1.49-1.12
			c-0.75,0-1.24,0.5-1.49,1.12c-0.12,0.31-0.25,0.56-0.31,0.87c-0.31,0.81,0.31,1.68,1.12,1.93c0.87,0.25,1.62-0.31,1.93-1.12
			c0.12-0.31,0.25-0.56,0.31-0.87c-1,0-1.99,0-2.99,0c1.06,4.92,2.55,9.65,4.42,14.31c0.56,1.37,2.49,1.56,2.99,0
			c0.62-1.93,0-3.86-0.93-5.54c-0.75-1.43-2.12-2.8-2.24-4.48c-0.87,0.37-1.8,0.75-2.68,1.12c0.37,0.44,0.68,0.93,0.87,1.56
			c0.87-0.5,1.74-1,2.61-1.49c-0.75-0.75-1.24-1.74-1.31-2.86c-0.87,0.37-1.8,0.75-2.68,1.12c1.18,1.06,2.12,2.24,2.74,3.73
			c0.87-0.5,1.8-1.06,2.68-1.56c-2.3-3.61-4.48-7.34-6.47-11.08c-0.87,0.5-1.8,1.06-2.68,1.56c1.62,2.8,3.3,5.6,4.98,8.4
			c0.87-0.5,1.8-1.06,2.68-1.56c-1.12-1.8-2.18-3.61-3.11-5.54c-0.5-0.93-0.93-1.93-1.37-2.86c-0.31-0.68-0.81-1.56-0.56-2.36
			c-0.87,0.25-1.74,0.44-2.61,0.68c0.93,0.93,1.74,1.99,2.36,3.17c0.87-0.5,1.8-1.06,2.68-1.56c-2.93-3.92-5.54-8.03-7.9-12.32
			c-1-1.74-3.61-0.19-2.68,1.56c1.43,2.68,2.86,5.35,4.29,8.03c0.87-0.5,1.8-1.06,2.68-1.56c-1.12-1.87-1.87-3.86-2.24-5.97
			c-0.87,0.5-1.74,1-2.61,1.49c1.43,1.68,2.43,3.67,3.05,5.79c0.93-0.37,1.93-0.81,2.86-1.18c-1.49-2.43-2.49-4.98-2.93-7.78
			c-0.87,0.5-1.74,1-2.61,1.49c1.37,1.56,2.3,3.36,2.74,5.41c0.93-0.37,1.93-0.81,2.86-1.18c-3.49-4.85-6.41-10.02-8.78-15.43
			c-0.81,0.62-1.62,1.24-2.43,1.87c1.12,1,1.56,2.49,2.43,3.73c1,1.43,2.36,2.49,4.17,2.55c1,0.06,1.74-1.06,1.49-1.99
			c-0.68-2.55-1.37-5.1-2.05-7.66c-0.31-1.24-0.68-2.49-1.31-3.73c-0.56-1.12-1.31-2.18-1.99-3.24c-2.8-4.05-5.23-8.34-7.22-12.82
			c-1.12-2.55-2.12-5.17-2.99-7.78C131.46,230.3,128.47,231.11,129.09,233.04L129.09,233.04z"/>
	</g>
</g>
<rect x="173.84" y="263.66" class="st3" width="12.95" height="61.05"/>
<circle class="st3" cx="180.12" cy="249.22" r="6.22"/>
<g>
	<g>
		<path class="st0" d="M186.97,226.5c-0.5,2.49-1.31,4.98-2.49,7.22c-0.56,1.06-1.24,2.12-1.99,3.05c-0.19,0.25-0.37,0.5-0.56,0.68
			c-0.12,0.12-0.19,0.25-0.31,0.37c0.25-0.12,0.5-0.12,0.68,0.06c-0.06,0,0.19-0.87,0.25-0.93c2.12-5.23,5.1-10.21,8.22-14.87
			c-0.93-0.37-1.87-0.81-2.86-1.18c-1.06,4.42-2.61,8.65-4.73,12.63c0.93,0.37,1.87,0.81,2.86,1.18c0.44-2.49,1.31-4.85,2.61-6.97
			c1.06-1.74-1.68-3.3-2.68-1.56c-1.43,2.36-2.43,4.98-2.93,7.72c-0.12,0.75,0.12,1.56,0.93,1.87c0.68,0.25,1.56,0.06,1.93-0.62
			c2.18-4.23,3.92-8.71,5.04-13.38c0.44-1.74-1.87-2.68-2.86-1.18c-2.99,4.48-5.6,9.21-7.84,14.07c-0.62,1.31-1.31,2.68-0.93,4.11
			c0.31,1.24,1.56,2.18,2.8,2.12c1.43-0.06,2.3-1.43,3.11-2.49c0.75-1,1.37-1.99,1.99-3.05c1.37-2.49,2.3-5.17,2.8-7.97
			c0.12-0.81-0.25-1.68-1.12-1.93C188.09,225.2,187.09,225.63,186.97,226.5L186.97,226.5z"/>
	</g>
</g>
<g>
	<g>
		<path class="st0" d="M202.47,183.81c-3.17,11.33-7.97,22.22-14.07,32.24c-1.68,2.74-4.17,5.73-3.24,9.15
			c0.44,1.56,2.49,1.37,2.99,0c4.05-11.08,8.34-22.09,12.95-32.99c1.31-3.11,2.68-6.22,4.05-9.34c0.31-0.75,0.25-1.68-0.56-2.12
			c-0.68-0.37-1.8-0.19-2.12,0.56c-4.85,11.02-9.46,22.16-13.69,33.42c-1.24,3.17-2.43,6.41-3.61,9.65c1,0,1.99,0,2.99,0
			c-0.31-1.18,0.25-2.36,0.81-3.36c0.68-1.24,1.49-2.43,2.24-3.67c1.49-2.43,2.86-4.92,4.23-7.47c2.68-5.17,5.04-10.46,7.03-15.93
			c1.12-3.11,2.12-6.22,3.05-9.34C206.01,182.69,202.96,181.88,202.47,183.81L202.47,183.81z"/>
	</g>
</g>
<g>
	<g>
		<path class="st0" d="M195.31,230.98c-3.67,1.87-7.72,2.8-11.82,2.93c0.25,0.93,0.5,1.93,0.81,2.93c2.74-1.68,5.6-3.11,8.53-4.36
			c0.44-0.19,0.81-0.87,0.75-1.37c-0.12-1.49-1.37-2.24-2.8-1.99c-1.12,0.19-2.24,0.75-3.17,1.24c-2.12,1.12-3.86,2.74-5.29,4.61
			c0.87,0.5,1.8,1.06,2.68,1.56c0.44-0.81,1-1.43,1.68-1.99c-0.75-0.75-1.49-1.49-2.18-2.18c-1.06,1.18-2.12,2.36-3.17,3.55
			c-1.31,1.49,0.87,3.67,2.18,2.18c1.06-1.18,2.12-2.36,3.17-3.55c1.37-1.49-0.68-3.49-2.18-2.18c-0.87,0.75-1.62,1.62-2.18,2.61
			c-0.44,0.75-0.19,1.68,0.56,2.12c0.81,0.5,1.62,0.12,2.12-0.56c0.87-1.12,1.93-2.12,3.11-2.86c0.62-0.37,1.24-0.75,1.93-1.06
			c0.31-0.12,0.62-0.25,0.93-0.37c0.06,0,0.37-0.06,0.44-0.12c-0.19,0.19-0.87-0.62-0.75-0.44c-0.06-0.25-0.12-0.5-0.19-0.81
			c0,0.06,0,0.06,0,0.12c0.25-0.44,0.5-0.87,0.75-1.37c-2.93,1.24-5.79,2.74-8.53,4.36c-1.31,0.81-0.81,2.93,0.81,2.93
			c4.67-0.12,9.27-1.24,13.44-3.3c0.75-0.37,0.93-1.43,0.56-2.12C196.99,230.8,196.06,230.61,195.31,230.98L195.31,230.98z"/>
	</g>
</g>
</svg>
