<?xml version="1.0" encoding="utf-8"?>
<!-- Generator: Adobe Illustrator 24.1.3, SVG Export Plug-In . SVG Version: 6.00 Build 0)  -->
<svg version="1.1" id="Layer_1" xmlns="http://www.w3.org/2000/svg" xmlns:xlink="http://www.w3.org/1999/xlink" x="0px" y="0px"
	 viewBox="0 0 612 792" style="enable-background:new 0 0 612 792;" xml:space="preserve">
<style type="text/css">
	.st0{fill:none;stroke:#000000;stroke-width:6;stroke-miterlimit:10;}
	.st1{fill:none;stroke:#000000;stroke-width:4;stroke-miterlimit:10;}
	.st2{fill:#FFFFFF;}
</style>
<rect x="171.41" y="244.66" width="12.28" height="58.05"/>
<path d="M268.63,261.96h0.36v-70.76h23.49v103.33H263.3l-31.32-72.36h-0.36v72.36h-23.49V191.19h29.54L268.63,261.96z"/>
<path d="M311.34,191.19h25.62v103.33h-25.62V191.19z"/>
<path d="M393.9,191.19l18.15,72.94h0.36l18.33-72.94h37.9v103.33h-23.49v-82.49h-0.36l-22.6,82.49h-19.93l-22.6-82.49h-0.36v82.49
	h-23.49V191.19H393.9z"/>
<path d="M543.72,191.19l33.63,103.33h-26.69l-5.87-21.85h-33.81l-5.87,21.85h-26.69l33.63-103.33H543.72z M540.33,255.59
	l-12.28-46.45h-0.36l-12.28,46.45H540.33z"/>
<g>
	<g>
		<path d="M526.59,208.3c-5.78,16.72-10.84,33.68-15.18,50.83c-0.79,3.12,4.03,4.45,4.82,1.33c4.34-17.15,9.4-34.11,15.18-50.83
			c0.44-1.28-0.5-2.73-1.75-3.08C528.3,206.18,527.04,207.02,526.59,208.3L526.59,208.3z"/>
	</g>
</g>
<g>
	<g>
		<path d="M528.09,217.41c0.22,0.02,0.48,0.2,0.75,0.5c0.38,0.42,0.7,0.99,0.94,1.53c0.62,1.36,0.94,2.86,1.35,4.29
			c1.13,3.96,2.24,7.92,3.32,11.89c2.18,7.94,4.27,15.9,6.29,23.88c0.79,3.12,5.61,1.8,4.82-1.33c-2.22-8.78-4.53-17.53-6.94-26.26
			c-1.15-4.17-2.22-8.39-3.54-12.51c-1.11-3.44-3.09-6.64-7-6.99c-1.35-0.12-2.5,1.24-2.5,2.5
			C525.59,216.36,526.74,217.29,528.09,217.41L528.09,217.41z"/>
	</g>
</g>
<g>
	<g>
		<path d="M528.7,218.42c3.22,0,3.22-5,0-5C525.48,213.42,525.47,218.42,528.7,218.42L528.7,218.42z"/>
	</g>
</g>
<g>
	<g>
		<path d="M541.69,258.91c3.22,0,3.22-5,0-5C538.47,253.91,538.47,258.91,541.69,258.91L541.69,258.91z"/>
	</g>
</g>
<g>
	<g>
		<path d="M515.7,259.21c3.22,0,3.22-5,0-5C512.48,254.21,512.48,259.21,515.7,259.21L515.7,259.21z"/>
	</g>
</g>
<g>
	<g>
		<path d="M546.22,273.42c3.22,0,3.22-5,0-5C543.01,268.42,543,273.42,546.22,273.42L546.22,273.42z"/>
	</g>
</g>
<g>
	<g>
		<path d="M509.66,273.42c3.22,0,3.22-5,0-5C506.44,268.42,506.43,273.42,509.66,273.42L509.66,273.42z"/>
	</g>
</g>
<line class="st0" x1="409.12" y1="258.84" x2="433.55" y2="192.65"/>
<line class="st0" x1="419.67" y1="292.58" x2="448.29" y2="215.92"/>
<line class="st0" x1="391.47" y1="193.32" x2="418.09" y2="259.66"/>
<line class="st0" x1="375.25" y1="214.91" x2="404.78" y2="290.55"/>
<line class="st0" x1="229.9" y1="228.11" x2="265.49" y2="292.38"/>
<line class="st0" x1="236.17" y1="194.81" x2="273.08" y2="260.96"/>
<g>
	<g>
		<path d="M374.24,215.06c2.22,0.9,4.02,2.73,5.59,4.48c1.76,1.96,3.26,4.13,4.56,6.42c2.64,4.63,4.38,9.66,5.67,14.81
			c1.39-0.81,2.79-1.62,4.18-2.43c-6.1-6.67-7.97-16.04-13.4-23.18c-0.75-0.99-1.89-1.56-3.12-1.02c-1.03,0.45-1.92,1.78-1.45,2.95
			c1.85,4.62,4.18,8.98,7.12,13.01c0.73,1.01,1.91,1.56,3.12,1.02c1.03-0.45,1.92-1.78,1.45-2.95c-2.64-6.56-5.05-13.21-7.22-19.94
			c-0.98-3.05-5.81-1.75-4.82,1.33c2.17,6.73,4.57,13.38,7.22,19.94c1.52-0.64,3.05-1.28,4.57-1.93c-2.66-3.66-4.93-7.62-6.61-11.82
			c-1.52,0.64-3.05,1.28-4.57,1.93c5.71,7.51,7.74,17.16,14.18,24.19c1.74,1.9,4.76-0.11,4.18-2.43
			c-1.46-5.82-3.52-11.56-6.59-16.73c-3.02-5.08-7.12-10.2-12.72-12.48c-1.25-0.51-2.75,0.55-3.08,1.75
			C372.1,213.41,372.98,214.55,374.24,215.06L374.24,215.06z"/>
	</g>
</g>
<g>
	<g>
		<path d="M405.15,255.18c1.15,2.52,2.67,4.8,4.46,6.91c0.8,0.94,2.38,0.91,3.28,0.2c1.04-0.83,1.17-2.06,0.64-3.23
			c-4.91-10.85-9.81-21.7-14.72-32.54c-0.72,1.25-1.44,2.51-2.16,3.76c-0.64,0.01-0.21-0.22-0.2,0.04c0.01,0.23,0.61,0.97,0.72,1.15
			c0.52,0.85,1.04,1.69,1.57,2.54c1,1.62,2,3.24,3,4.86c2.05,3.31,4.09,6.62,6.14,9.94c1.66,2.69,3.7,5.56,4.04,8.79
			c0.31,2.92-1.08,5.55-3.34,7.33c1.39,0.81,2.79,1.62,4.18,2.43c0.39-1.74,0.77-3.48,1.16-5.22c0.69-3.14-4.13-4.47-4.82-1.33
			c-0.39,1.74-0.77,3.48-1.16,5.22c-0.57,2.6,2.26,3.94,4.18,2.43c3.02-2.37,4.84-6.21,4.84-10.04c-0.01-4.33-2.3-8.15-4.5-11.71
			c-2.44-3.95-4.87-7.89-7.31-11.84c-1.22-1.97-2.44-3.95-3.66-5.92c-1.14-1.85-2.41-3.71-4.84-3.67c-2.04,0.04-2.93,2.06-2.16,3.76
			c4.91,10.85,9.81,21.7,14.72,32.54c1.31-1.01,2.62-2.02,3.93-3.03c-1.51-1.78-2.71-3.77-3.68-5.89c-0.56-1.23-2.34-1.53-3.42-0.9
			C404.78,252.5,404.59,253.95,405.15,255.18L405.15,255.18z"/>
	</g>
</g>
<g>
	<g>
		<path d="M447.21,207.46c-4.99,8.15-9.87,16.36-14.65,24.64c-1.62,2.8,2.57,5.21,4.32,2.52c5.23-8.06,10.16-16.3,14.78-24.72
			c1.55-2.82-2.77-5.35-4.32-2.52c-4.62,8.42-9.55,16.66-14.78,24.72c1.44,0.84,2.88,1.68,4.32,2.52
			c4.78-8.27,9.67-16.48,14.65-24.64C453.21,207.23,448.89,204.71,447.21,207.46L447.21,207.46z"/>
	</g>
</g>
<g>
	<g>
		<path d="M256.76,253.18c6.78,2.75,12.38,8.03,15.78,14.47c0.72-1.25,1.44-2.51,2.16-3.76c0.25,0.1,0.5,0.2,0.75,0.3
			c-0.07-0.07-0.14-0.14-0.21-0.21c-0.12-0.2-0.33-0.38-0.48-0.55c-0.37-0.44-0.75-0.88-1.12-1.33c-0.75-0.88-1.49-1.77-2.24-2.65
			c-1.54-1.82-3.08-3.64-4.62-5.47c-1.49-1.77-2.98-3.53-4.48-5.3c-1-1.18-2.61-2.62-2.55-4.26c0.11-3.22-4.89-3.21-5,0
			c-0.09,2.63,1.43,4.71,3.04,6.64c1.81,2.16,3.64,4.31,5.46,6.46c1.77,2.1,3.54,4.2,5.32,6.29c1.64,1.94,3.32,4.96,6.14,5.08
			c1.98,0.09,3-2.16,2.16-3.76c-4.05-7.66-10.77-13.52-18.77-16.77c-1.25-0.51-2.75,0.55-3.08,1.75
			C254.62,251.54,255.51,252.67,256.76,253.18L256.76,253.18z"/>
	</g>
</g>
<g>
	<g>
		<path d="M223.22,210.21c3.58,4.43,4.92,10.27,7.02,15.44c2.38,5.85,5.28,11.45,8.75,16.73c1.31-1.01,2.62-2.02,3.93-3.03
			c-3.32-2.64-5.48-6.19-7.41-9.91c-2.26-4.37-4.38-8.81-6.56-13.21c-1.43-2.88-5.74-0.35-4.32,2.52c2.24,4.53,4.41,9.1,6.75,13.58
			c2.05,3.92,4.5,7.77,8,10.56c0.97,0.78,2.24,1.03,3.28,0.2c0.93-0.74,1.34-2.17,0.64-3.23c-3.47-5.29-6.45-10.91-8.75-16.81
			c-2.22-5.69-3.9-11.55-7.8-16.38c-0.85-1.05-2.65-0.88-3.54,0C222.19,207.71,222.37,209.15,223.22,210.21L223.22,210.21z"/>
	</g>
</g>
<path d="M73.27,191.19l18.15,72.94h0.36l18.33-72.94H148v103.33h-23.49v-82.49h-0.36l-22.6,82.49H81.63l-22.6-82.49h-0.36v82.49
	H35.19V191.19H73.27z"/>
<line class="st0" x1="88.49" y1="258.84" x2="112.92" y2="192.65"/>
<line class="st0" x1="99.04" y1="292.58" x2="127.66" y2="215.92"/>
<line class="st0" x1="70.84" y1="193.32" x2="97.46" y2="259.66"/>
<line class="st0" x1="54.62" y1="214.91" x2="84.15" y2="290.55"/>
<g>
	<g>
		<path d="M53.61,215.06c2.22,0.9,4.02,2.73,5.59,4.48c1.76,1.96,3.26,4.13,4.56,6.42c2.64,4.63,4.38,9.66,5.67,14.81
			c1.39-0.81,2.79-1.62,4.18-2.43c-6.1-6.67-7.97-16.04-13.4-23.18c-0.75-0.99-1.89-1.56-3.12-1.02c-1.03,0.45-1.92,1.78-1.45,2.95
			c1.85,4.62,4.18,8.98,7.12,13.01c0.73,1.01,1.91,1.56,3.12,1.02c1.03-0.45,1.92-1.78,1.45-2.95c-2.64-6.56-5.05-13.21-7.22-19.94
			c-0.98-3.05-5.81-1.75-4.82,1.33c2.17,6.73,4.57,13.38,7.22,19.94c1.52-0.64,3.05-1.28,4.57-1.93c-2.66-3.66-4.93-7.62-6.61-11.82
			c-1.52,0.64-3.05,1.28-4.57,1.93c5.71,7.51,7.74,17.16,14.18,24.19c1.74,1.9,4.76-0.11,4.18-2.43
			c-1.46-5.82-3.52-11.56-6.59-16.73c-3.02-5.08-7.12-10.2-12.72-12.48c-1.25-0.51-2.75,0.55-3.08,1.75
			C51.47,213.41,52.35,214.55,53.61,215.06L53.61,215.06z"/>
	</g>
</g>
<g>
	<g>
		<path d="M84.52,255.18c1.15,2.52,2.67,4.8,4.46,6.91c0.8,0.94,2.38,0.91,3.28,0.2c1.04-0.83,1.17-2.06,0.64-3.23
			c-4.91-10.85-9.81-21.7-14.72-32.54c-0.72,1.25-1.44,2.51-2.16,3.76c-0.64,0.01-0.21-0.22-0.2,0.04c0.01,0.23,0.61,0.97,0.72,1.15
			c0.52,0.85,1.04,1.69,1.57,2.54c1,1.62,2,3.24,3,4.86c2.05,3.31,4.09,6.62,6.14,9.94c1.66,2.69,3.7,5.56,4.04,8.79
			c0.31,2.92-1.08,5.55-3.34,7.33c1.39,0.81,2.79,1.62,4.18,2.43c0.39-1.74,0.77-3.48,1.16-5.22c0.69-3.14-4.13-4.47-4.82-1.33
			c-0.39,1.74-0.77,3.48-1.16,5.22c-0.57,2.6,2.26,3.94,4.18,2.43c3.02-2.37,4.84-6.21,4.84-10.04c-0.01-4.33-2.3-8.15-4.5-11.71
			c-2.44-3.95-4.87-7.89-7.31-11.84c-1.22-1.97-2.44-3.95-3.66-5.92c-1.14-1.85-2.41-3.71-4.84-3.67c-2.04,0.04-2.93,2.06-2.16,3.76
			c4.91,10.85,9.81,21.7,14.72,32.54c1.31-1.01,2.62-2.02,3.93-3.03c-1.51-1.78-2.71-3.77-3.68-5.89c-0.56-1.23-2.34-1.53-3.42-0.9
			C84.15,252.5,83.96,253.95,84.52,255.18L84.52,255.18z"/>
	</g>
</g>
<g>
	<g>
		<path d="M126.58,207.46c-4.99,8.15-9.87,16.36-14.65,24.64c-1.62,2.8,2.57,5.21,4.32,2.52c5.23-8.06,10.16-16.3,14.78-24.72
			c1.55-2.82-2.77-5.35-4.32-2.52c-4.62,8.42-9.55,16.66-14.78,24.72c1.44,0.84,2.88,1.68,4.32,2.52
			c4.78-8.27,9.67-16.48,14.65-24.64C132.58,207.23,128.26,204.71,126.58,207.46L126.58,207.46z"/>
	</g>
</g>
<circle cx="177.35" cy="230.98" r="5.94"/>
<path d="M253.27,385.82l51.24,205.91h1l51.74-205.91h107v291.7h-66.31V444.65h-1.01l-63.8,232.87h-56.26l-63.8-232.87h-1v232.87
	h-66.31v-291.7H253.27z"/>
<line class="st0" x1="296.25" y1="576.79" x2="365.22" y2="389.93"/>
<line class="st0" x1="326.04" y1="672.05" x2="406.82" y2="455.62"/>
<line class="st0" x1="246.41" y1="391.82" x2="321.58" y2="579.11"/>
<line class="st0" x1="200.63" y1="452.77" x2="283.99" y2="666.31"/>
<g>
	<g>
		<path d="M215.28,466.73c-0.42-0.42-0.85-0.85-1.27-1.27c-1.67-1.67-5.07,0.01-4.18,2.43c3.77,10.25,8.21,21,17.03,27.96
			c2.2,1.73,5.23-0.36,3.93-3.03c-1.67-3.41-3.33-6.82-5-10.23c-1.61-3.29-3.48-6.56-4.82-9.96c-1.22-3.11-1.71-6.56-3.41-9.47
			c-1.39-2.37-3.78-4.25-4.85-6.8c-0.52-1.24-1.65-2.14-3.08-1.75c-1.19,0.33-2.25,1.81-1.75,3.08
			c5.03,12.66,11.58,24.65,19.63,35.65c0.73,1,1.91,1.56,3.12,1.02c1.03-0.45,1.92-1.78,1.45-2.95
			c-7.47-18.51-14.27-37.29-20.38-56.29c-0.98-3.05-5.81-1.75-4.82,1.33c6.1,19.01,12.9,37.78,20.38,56.29
			c1.52-0.64,3.05-1.28,4.57-1.93c-7.78-10.63-14.26-22.21-19.13-34.46c-1.61,0.44-3.21,0.89-4.82,1.33
			c1.21,2.88,3.39,4.93,5.06,7.52c1.76,2.73,2.16,6.18,3.37,9.17c1.42,3.52,3.27,6.89,4.94,10.3c1.74,3.56,3.48,7.12,5.22,10.68
			c1.31-1.01,2.62-2.02,3.93-3.03c-8.16-6.45-12.26-16.26-15.75-25.76c-1.39,0.81-2.79,1.62-4.18,2.43
			c0.42,0.42,0.85,0.85,1.27,1.27C214.03,472.54,217.57,469,215.28,466.73L215.28,466.73z"/>
	</g>
</g>
<g>
	<g>
		<path d="M288.97,564.17c3.04,6.74,7.07,12.96,11.89,18.57c0.8,0.93,2.38,0.92,3.28,0.2c1.04-0.83,1.17-2.06,0.64-3.23
			c-10.8-23.88-21.6-47.76-32.41-71.64c-3.05-6.75-6.1-13.49-9.16-20.24c-0.72,1.25-1.44,2.51-2.16,3.76
			c1.29-0.14,2.14,0.72,2.93,1.74c1.23,1.57,2.18,3.4,3.23,5.09c2.39,3.88,4.79,7.75,7.18,11.63c4.74,7.68,9.49,15.37,14.23,23.05
			c4.6,7.45,9.42,14.8,13.71,22.43c3.73,6.63,6.87,13.91,6.44,21.66c-0.42,7.53-4.3,15-10.3,19.59c1.22,0.94,2.45,1.88,3.67,2.82
			c1.09-4.91,2.17-9.82,3.26-14.73c0.69-3.14-4.13-4.47-4.82-1.33c-1.09,4.91-2.17,9.82-3.26,14.73c-0.42,1.89,1.8,4.25,3.67,2.82
			c6.25-4.77,10.72-11.66,12.22-19.43c1.63-8.48-0.56-16.75-4.29-24.38c-4-8.18-9.24-15.81-14.01-23.54
			c-5.14-8.32-10.27-16.64-15.41-24.95c-2.83-4.58-5.66-9.16-8.49-13.75c-2.19-3.55-4.95-8.99-9.96-8.46
			c-1.98,0.21-2.98,1.94-2.16,3.76c10.8,23.88,21.6,47.76,32.41,71.64c3.05,6.75,6.1,13.49,9.16,20.24
			c1.31-1.01,2.62-2.02,3.93-3.03c-4.54-5.28-8.25-11.21-11.1-17.56c-0.55-1.23-2.34-1.53-3.42-0.9
			C288.6,561.49,288.42,562.93,288.97,564.17L288.97,564.17z"/>
	</g>
</g>
<g>
	<g>
		<path d="M407.72,434.04c-10.99,17.96-21.8,36.02-32.44,54.19c-2.99,5.11-5.97,10.23-8.93,15.36c-1.62,2.8,2.57,5.21,4.32,2.52
			c11.52-17.73,22.52-35.78,32.98-54.15c2.95-5.19,5.87-10.4,8.73-15.64c1.55-2.82-2.77-5.35-4.32-2.52
			c-10.16,18.54-20.85,36.78-32.08,54.69c-3.17,5.06-6.38,10.09-9.64,15.1c1.44,0.84,2.88,1.68,4.32,2.52
			c10.54-18.23,21.25-36.35,32.14-54.37c3.06-5.07,6.14-10.13,9.23-15.18C413.72,433.81,409.4,431.3,407.72,434.04L407.72,434.04z"
			/>
	</g>
</g>
<g>
	<g>
		<path d="M210.74,453.34c1.6,9.26,5.64,17.88,11.51,25.19c0.68,0.85,2.15,0.91,3.03,0.39c1.01-0.59,1.35-1.72,1.15-2.82
			c-0.84-4.47-3.15-8.61-6.47-11.71c-1.84-1.72-4.76-0.02-4.18,2.43c3.2,13.53,9.24,26.37,17.68,37.43
			c1.31-1.01,2.62-2.02,3.93-3.03c-6.84-7.27-13.69-14.55-20.53-21.82c-1.91-2.03-5.53,0.65-3.93,3.03
			c6.53,9.68,11.67,20.21,15.22,31.33c1.52-0.64,3.05-1.28,4.57-1.93c-3.57-7.43-7.15-14.85-10.72-22.28
			c-1.26-2.62-5.23-0.74-4.57,1.93c1.02,4.11,2.56,8.11,4.54,11.85c1.01,1.9,2.15,3.74,3.41,5.49c1.07,1.5,2.39,2.99,3.06,4.73
			c0.72,1.89-0.26,3.74-0.14,5.68c0.14,2.28,1.08,4.45,1.82,6.59c1.58,4.61,3.16,9.23,4.75,13.84c0.86,2.5,1.72,5,2.57,7.51
			c0.77,2.26,1.52,4.71,3.46,6.26c1.9,1.51,4.78,0.16,4.18-2.43c-3.14-13.45-7.21-26.67-12.19-39.55c-0.4-1.04-1.23-1.84-2.41-1.84
			c-1,0-2.26,0.77-2.41,1.84c-0.53,3.87,0.51,7.57,3.28,10.4c1.97,2.02,5.41-0.58,3.93-3.03c-8.84-14.56-17.83-29.45-21.39-46.31
			c-1.61,0.44-3.21,0.89-4.82,1.33c6.06,14.69,17.87,25.49,29.55,35.79c2.39,2.11,5.85-1.26,3.54-3.54
			c-3.78-3.71-7.96-6.99-12.45-9.79c-1.11-0.69-2.8-0.27-3.42,0.9c-1.01,1.92-1.06,4.2,0.21,6.03c0.77,1.11,2.19,1.62,3.42,0.9
			c1.1-0.64,1.67-2.31,0.9-3.42c-0.24-0.34-0.42-0.57-0.21-0.98c-1.14,0.3-2.28,0.6-3.42,0.9c4.14,2.58,7.95,5.59,11.43,9.01
			c1.18-1.18,2.36-2.36,3.54-3.54c-10.91-9.62-22.59-19.81-28.27-33.58c-0.51-1.25-1.66-2.14-3.08-1.75
			c-1.37,0.38-2.03,1.75-1.75,3.08c3.65,17.27,12.85,32.6,21.9,47.51c1.31-1.01,2.62-2.02,3.93-3.03c-1.39-1.42-2.27-3.51-1.99-5.53
			c-1.61,0-3.21,0-4.82,0c4.98,12.88,9.05,26.1,12.19,39.55c1.39-0.81,2.79-1.62,4.18-2.43c-1.39-1.11-1.78-2.9-2.33-4.52
			c-0.78-2.27-1.56-4.53-2.33-6.8c-1.53-4.46-3.06-8.91-4.59-13.37c-0.65-1.9-1.65-3.95-1.88-5.96c-0.11-0.93,0.18-1.84,0.31-2.75
			c0.17-1.12,0.15-2.2-0.08-3.32c-0.83-3.88-4.09-6.97-6.07-10.29c-2.37-3.97-4.09-8.24-5.2-12.72c-1.52,0.64-3.05,1.28-4.57,1.93
			c3.57,7.43,7.15,14.85,10.72,22.28c1.23,2.55,5.43,0.76,4.57-1.93c-3.68-11.52-8.96-22.5-15.72-32.53
			c-1.31,1.01-2.62,2.02-3.93,3.03c6.84,7.27,13.69,14.55,20.53,21.82c0.85,0.9,2.34,0.94,3.28,0.2c0.88-0.7,1.41-2.22,0.64-3.23
			c-8.21-10.75-14.07-23.07-17.18-36.23c-1.39,0.81-2.79,1.62-4.18,2.43c2.76,2.57,4.5,5.81,5.19,9.51
			c1.39-0.81,2.79-1.62,4.18-2.43c-5.33-6.64-8.78-14.62-10.22-22.98c-0.23-1.33-1.86-2.08-3.08-1.75
			C211.08,450.65,210.51,452.01,210.74,453.34L210.74,453.34z"/>
	</g>
</g>
<g>
	<g>
		<path d="M330.57,562.94c-11.82,9.39-23.63,18.78-35.45,28.18c1.31,1.01,2.62,2.02,3.93,3.03c7.17-15.86,17.9-29.66,28.59-43.26
			c0.77-0.98,1.03-2.23,0.2-3.28c-0.73-0.92-2.17-1.35-3.23-0.64c-15.05,10.04-28.14,22.72-38.71,37.4c-0.72,1-0.27,2.54,0.64,3.23
			c1.05,0.78,2.31,0.63,3.28-0.2c9.02-7.7,18.37-15.01,28.02-21.9c1.1-0.78,1.62-2.18,0.9-3.42c-0.63-1.08-2.32-1.69-3.42-0.9
			c-10,7.14-19.69,14.71-29.03,22.68c1.31,1.01,2.62,2.02,3.93,3.03c10.04-13.95,22.62-26.06,36.92-35.6
			c-1.01-1.31-2.02-2.62-3.03-3.93c-10.95,13.93-22.03,28.02-29.37,44.27c-1.19,2.64,1.67,4.82,3.93,3.03
			c11.82-9.39,23.63-18.78,35.45-28.18c1.06-0.84,0.88-2.66,0-3.54C333.06,561.9,331.63,562.1,330.57,562.94L330.57,562.94z"/>
	</g>
</g>
<g>
	<g>
		<path d="M318,541.78c-10.52,5.57-21.04,11.14-31.57,16.72c3.36,5.76,6.73,11.51,10.09,17.27c3.56-1.95,7.22-3.71,10.96-5.3
			c-0.8,0.34-1.59,0.67-2.39,1.01c8.89-3.72,18.18-6.36,27.7-7.84c-2.57-6.09-5.14-12.18-7.71-18.28
			c-6.49,4.73-12.69,9.85-18.37,15.53c-5.63,5.63-10.71,11.77-15.4,18.21c-2.44,3.36-4.73,6.82-6.86,10.39
			c-2.19,3.66-1.66,9.16,1.56,12.12c1.28,1.17,2.76,2.04,4.41,2.57c2.25,0.73,5.73,0.33,7.71-1.01
			c8.74-5.94,17.22-12.26,25.48-18.86c1.87-1.5,2.93-4.79,2.93-7.07c0-2.45-1.09-5.38-2.93-7.07c-1.91-1.75-4.41-3.05-7.07-2.93
			c-0.89,0.12-1.77,0.24-2.66,0.36c-1.69,0.48-3.16,1.33-4.41,2.57c-1.62,1.29-3.25,2.57-4.88,3.84c0.67-0.52,1.35-1.04,2.02-1.56
			c-6.05,4.67-12.25,9.16-18.57,13.46c4.56,4.56,9.12,9.12,13.68,13.68c2.82-4.71,5.91-9.25,9.27-13.59
			c-0.52,0.67-1.04,1.35-1.56,2.02c7.08-9.12,15.28-17.33,24.4-24.41c-0.67,0.52-1.35,1.04-2.02,1.56c1.11-0.86,2.24-1.7,3.38-2.53
			c2.07-1.51,4-3.35,4.6-5.98c0.51-2.24,0.39-4.39-0.5-6.51c-0.81-1.92-2.2-3.78-4.09-4.78c-0.8-0.34-1.59-0.67-2.39-1.01
			c-1.77-0.48-3.54-0.48-5.32,0c-14.36,2.24-28.3,7.17-41.05,14.14c-4.59,2.51-6.46,9.23-3.59,13.68c3.04,4.71,8.73,6.21,13.68,3.59
			c10.52-5.57,21.04-11.14,31.57-16.72c4.63-2.45,6.43-9.27,3.59-13.68C328.65,540.66,322.95,539.16,318,541.78L318,541.78z"/>
	</g>
</g>
<g>
	<g>
		<path d="M326.79,491.9c-3.33,7.91-6.23,16.01-8.65,24.24c-1.21,4.1-2.3,8.24-3.28,12.4c-0.94,3.98-1.86,7.98-3.42,11.77
			c0.34-0.8,0.67-1.59,1.01-2.39c-2.49,5.85-6.93,10.79-8.16,17.18c-0.51,2.68-0.41,5.29,1.01,7.71c1.21,2.07,3.59,4.05,5.98,4.6
			c2.56,0.58,5.43,0.46,7.71-1.01c2.09-1.35,4.11-3.44,4.6-5.98c0.23-1.19,0.59-2.34,1.05-3.46c-0.34,0.8-0.67,1.59-1.01,2.39
			c1.51-3.46,3.82-6.49,5.45-9.89c2.09-4.38,3.48-8.91,4.6-13.62c1.99-8.39,4.27-16.69,7.11-24.84c1.62-4.66,3.39-9.26,5.3-13.8
			c0.93-2.21,0.14-5.74-1.01-7.71c-1.21-2.07-3.59-4.05-5.98-4.6c-2.56-0.58-5.43-0.46-7.71,1.01c-0.67,0.52-1.35,1.04-2.02,1.56
			C328.12,488.73,327.26,490.2,326.79,491.9L326.79,491.9z"/>
	</g>
</g>
<g>
	<g>
		<path d="M262.31,476.18c-0.7,5.93,1.36,11.67,3.65,17.02c1.78,4.15,3.81,8.19,5.71,12.29c3.89,8.38,7.64,16.82,11.24,25.33
			c-0.34-0.8-0.67-1.59-1.01-2.39c3.87,9.18,7.54,18.44,10.95,27.79c0.91,2.49,2.24,4.6,4.6,5.98c2.14,1.25,5.3,1.79,7.71,1.01
			c2.42-0.78,4.75-2.28,5.98-4.6c1.2-2.27,1.92-5.2,1.01-7.71c-6.64-18.16-14.2-35.98-22.29-53.54c-2.19-4.76-4.56-9.44-6.62-14.26
			c0.34,0.8,0.67,1.59,1.01,2.39c-1.01-2.41-1.85-4.87-2.24-7.46c0.12,0.89,0.24,1.77,0.36,2.66c-0.2-1.51-0.22-3-0.05-4.51
			c0.28-2.37-1.32-5.46-2.93-7.07c-1.73-1.73-4.58-3.04-7.07-2.93c-2.59,0.12-5.27,0.97-7.07,2.93c-0.52,0.67-1.04,1.35-1.56,2.02
			C262.77,472.69,262.32,474.38,262.31,476.18L262.31,476.18z"/>
	</g>
</g>
<g>
	<g>
		<path d="M396.16,438.69c-7.99,12.65-13.64,26.66-18.67,40.7c-5.09,14.18-9.84,28.48-14.74,42.73c-2.87,8.35-5.74,16.7-8.6,25.06
			c-0.81,2.36-0.22,5.6,1.01,7.71c1.21,2.07,3.59,4.05,5.98,4.6c5.56,1.27,10.48-1.68,12.3-6.98c7.59-22.1,14.98-44.27,22.8-66.29
			c2.06-5.8,4.22-11.56,6.6-17.22c-0.34,0.8-0.67,1.59-1.01,2.39c3.31-7.81,7.06-15.42,11.6-22.59c2.8-4.43,1.07-11.22-3.59-13.68
			C404.91,432.49,399.15,433.96,396.16,438.69L396.16,438.69z"/>
	</g>
</g>
<g>
	<g>
		<path d="M355.1,396.72c-9.72,26.35-17.95,53.24-24.61,80.53c-1.88,7.7-3.63,15.42-5.26,23.17c-0.55,2.64-0.38,5.33,1.01,7.71
			c1.21,2.07,3.59,4.05,5.98,4.6c2.56,0.58,5.43,0.46,7.71-1.01c2.11-1.36,4.06-3.43,4.6-5.98c5.78-27.48,13.11-54.64,21.99-81.28
			c2.5-7.52,5.13-14.99,7.87-22.42c0.85-2.31,0.2-5.65-1.01-7.71c-1.21-2.07-3.59-4.05-5.98-4.6c-2.56-0.58-5.43-0.46-7.71,1.01
			C357.4,392.22,356.05,394.16,355.1,396.72L355.1,396.72z"/>
	</g>
</g>
<g>
	<g>
		<path d="M235.07,399.5c0.85,6.36,2,12.57,3.93,18.7c0.77,2.46,2.34,4.66,4.6,5.98c2.14,1.25,5.3,1.79,7.71,1.01
			c2.42-0.78,4.75-2.28,5.98-4.6c0.34-0.8,0.67-1.59,1.01-2.39c0.48-1.77,0.48-3.54,0-5.32c-0.66-4.13-1.31-8.26-1.97-12.39
			c-6.43,1.77-12.86,3.54-19.29,5.32c8.23,20.72,15.88,41.67,22.93,62.83c2.01,6.02,3.97,12.06,5.88,18.11
			c0.78,2.46,2.34,4.66,4.6,5.98c2.14,1.25,5.3,1.79,7.71,1.01c5-1.62,8.67-6.96,6.98-12.3c-6.72-21.26-14.02-42.34-21.92-63.19
			c-2.25-5.94-4.55-11.85-6.89-17.75c-1-2.51-2.18-4.56-4.6-5.98c-2.14-1.25-5.3-1.79-7.71-1.01c-2.42,0.78-4.75,2.28-5.98,4.6
			c-0.34,0.8-0.67,1.59-1.01,2.39c-0.48,1.77-0.48,3.54,0,5.32c0.66,4.13,1.31,8.26,1.97,12.39c6.43-1.77,12.86-3.54,19.29-5.32
			c-1.6-5.09-2.78-10.29-3.51-15.57c0.12,0.89,0.24,1.77,0.36,2.66c-0.02-0.16-0.04-0.31-0.06-0.47c0.05-1.38-0.24-2.66-0.86-3.85
			c-0.4-1.24-1.09-2.31-2.07-3.22c-1.73-1.73-4.58-3.04-7.07-2.93c-2.59,0.12-5.27,0.97-7.07,2.93
			C236.35,394.23,234.73,396.95,235.07,399.5L235.07,399.5z"/>
	</g>
</g>
<line class="st1" x1="251.45" y1="387.33" x2="311.33" y2="551.13"/>
<line class="st1" x1="209.57" y1="497.96" x2="278.88" y2="676.52"/>
<line class="st1" x1="402.8" y1="489.06" x2="332.09" y2="674.03"/>
<line class="st1" x1="359.25" y1="386.82" x2="302.5" y2="534.19"/>
<g>
	<g>
		<path d="M388.29,506.49c-3.87,17.94-10.93,34.96-17.63,51.97c-6.9,17.53-13.82,35.05-20.8,52.54c-3.95,9.9-7.93,19.79-11.94,29.66
			c-0.51,1.25,0.55,2.75,1.75,3.08c1.43,0.39,2.57-0.49,3.08-1.75c7.12-17.53,14.13-35.1,21.09-52.69
			c6.85-17.31,13.93-34.56,20.38-52.02c3.56-9.63,6.74-19.41,8.9-29.46C393.79,504.69,388.97,503.35,388.29,506.49L388.29,506.49z"
			/>
	</g>
</g>
<g>
	<g>
		<path d="M393.46,491.3c-2.64,6.81-5.28,13.62-7.93,20.44c-0.49,1.26,0.54,2.74,1.75,3.08c1.43,0.39,2.56-0.49,3.08-1.75
			c3.69-8.97,8.59-17.39,13.44-25.77c0.56-0.96,0.4-2.24-0.39-3.03c-0.85-0.85-1.99-0.83-3.03-0.39c-2.24,0.96-3.71,3.02-4.96,5.02
			c-1.51,2.42-2.94,4.89-4.3,7.39c-0.6,1.1-1.3,2.23-1.59,3.46c-0.31,1.29,0.03,2.54-0.11,3.83c-0.26,2.4-1.9,4.56-3.24,6.48
			c1.44,0.84,2.88,1.68,4.32,2.52c2.82-4.24,5.14-8.73,7.07-13.44c-1.61-0.44-3.21-0.89-4.82-1.33c-1.91,4.79-3.82,9.58-5.73,14.37
			c-1.05,2.64,3.26,4.4,4.57,1.93c0.2-0.37,0.4-0.75,0.59-1.12c1.51-2.84-2.81-5.37-4.32-2.52c-0.2,0.37-0.4,0.75-0.59,1.12
			c1.52,0.64,3.05,1.28,4.57,1.93c1.91-4.79,3.82-9.58,5.73-14.37c0.5-1.25-0.55-2.75-1.75-3.08c-1.43-0.39-2.56,0.49-3.08,1.75
			c-1.76,4.29-4,8.39-6.57,12.25c-0.75,1.12-0.22,2.77,0.9,3.42c1.24,0.73,2.65,0.21,3.42-0.9c1.39-2,2.74-4.07,3.45-6.42
			c0.36-1.18,0.53-2.46,0.47-3.69c-0.06-1.24-0.02-1.73,0.57-2.83c1.23-2.31,2.53-4.58,3.88-6.81c1.07-1.76,2.05-3.79,4.04-4.64
			c-1.14-1.14-2.28-2.28-3.42-3.42c-5.08,8.77-10.09,17.58-13.94,26.97c1.61,0.44,3.21,0.89,4.82,1.33
			c2.64-6.81,5.28-13.62,7.93-20.44c0.49-1.26-0.54-2.74-1.75-3.08C395.13,489.16,393.95,490.03,393.46,491.3L393.46,491.3z"/>
	</g>
</g>
<g>
	<g>
		<path d="M215.07,495.08c0.04-1.86-0.39-3.53-1.15-5.21c-1.2-2.66-5.2-0.72-4.57,1.93c2.84,11.89,10.22,21.95,14.04,33.47
			c1.22-0.94,2.45-1.88,3.67-2.82c-1.22-0.92-2.49-1.89-3.42-3.1c-0.92-1.2-1.24-2.64-1.54-4.1c-0.65-3.23-1.33-6.16-4.11-8.22
			c-1.09-0.8-2.79-0.18-3.42,0.9c-0.74,1.27-0.19,2.62,0.9,3.42c0.79,0.59,1.07,1.77,1.31,2.76c0.36,1.47,0.54,2.99,0.98,4.44
			c1.11,3.68,3.82,5.99,6.78,8.22c1.75,1.32,4.32-0.87,3.67-2.82c-3.81-11.52-11.21-21.6-14.04-33.47
			c-1.52,0.64-3.05,1.28-4.57,1.93c0.39,0.86,0.49,1.75,0.47,2.68C210,498.3,215,498.29,215.07,495.08L215.07,495.08z"/>
	</g>
</g>
<g>
	<g>
		<path d="M219.69,523.5c6.78,16.18,13.58,32.36,20.31,48.56c1.23,2.96,5.35,1.89,4.82-1.33c-1.5-9.12-4.56-17.87-7.42-26.63
			c-1.48-4.54-2.97-9.07-4.45-13.61c-1.17-3.57-2.72-7.28-6.61-8.5c-3.08-0.96-4.4,3.86-1.33,4.82c1.21,0.38,1.88,1.72,2.35,2.83
			c0.69,1.61,1.15,3.33,1.69,4.99c1.38,4.22,2.76,8.45,4.15,12.67c2.66,8.14,5.41,16.28,6.81,24.75c1.61-0.44,3.21-0.89,4.82-1.33
			c-6.74-16.2-13.53-32.38-20.31-48.56c-0.52-1.24-1.65-2.14-3.08-1.75C220.26,520.75,219.17,522.25,219.69,523.5L219.69,523.5z"/>
	</g>
</g>
<g>
	<g>
		<path d="M222.56,524.94c2.46,7.65,5.61,15.09,9.42,22.17c1.87,3.48,3.9,6.87,6.09,10.16c2.21,3.32,4.54,6.42,5.67,10.3
			c1.36,4.66,2.5,9.39,3.75,14.07c0.8-1.05,1.61-2.11,2.41-3.16c-1.62-0.09-2.67-2.02-3.36-3.27c-1.06-1.92-2.02-3.88-3.67-5.37
			c-2.2-2-5.04,0.49-3.93,3.03c3.83,8.74,8.55,17.05,14.1,24.81c1.62,2.26,5.22,0.95,4.57-1.93c-0.92-4.08-2.91-7.77-5.7-10.87
			c-0.74-0.82-2.11-0.93-3.03-0.39c-1.03,0.6-1.33,1.72-1.15,2.82c0.78,4.87,2.57,9.55,5.18,13.73c1.47,2.35,5.39,0.87,4.57-1.93
			c-1.25-4.28-3.37-8.13-6.22-11.54c-0.7-0.84-2.13-0.91-3.03-0.39c-1.02,0.6-1.34,1.72-1.15,2.82c0.66,3.84,2.07,7.52,4.09,10.84
			c1.68,2.75,5.84,0.32,4.32-2.52c-2.3-4.29-4.59-8.58-6.89-12.87c-1.44,0.84-2.88,1.68-4.32,2.52c3.77,6.88,8,13.5,12.66,19.81
			c0.8,1.08,2.17,1.63,3.42,0.9c1.18-0.69,1.57-2.24,0.9-3.42c-1.26-2.22-2.81-4.27-4.6-6.09c-1.36-1.39-3.62-0.66-4.18,1.1
			c-0.59,1.88-0.2,3.78,0.53,5.56c0.75,1.84,1.57,3.65,2.43,5.43c1.67,3.48,3.55,6.86,5.59,10.13c1.7,2.72,5.96,0.26,4.32-2.52
			c-2.65-4.5-5.3-8.99-7.95-13.49c-1.64-2.78-5.81-0.32-4.32,2.52c3.2,6.1,6.67,12.05,10.39,17.85c0.73,1.14,2.22,1.6,3.42,0.9
			c1.29-0.75,1.43-2.17,0.9-3.42c-1.14-2.69-2.92-5.09-5.14-6.98c-1.51-1.29-4.42-0.57-4.27,1.77c0.2,3.09,1.4,5.89,3.58,8.1
			c1.71,1.73,4.96-0.02,4.18-2.43c-0.57-1.77-1.45-3.28-2.69-4.67c-1.38-1.55-4.46-0.38-4.27,1.77c0.26,2.98,1.61,5.45,3.18,7.94
			c1.27,2.02,2.86,4.4,2.08,6.88c1.61,0,3.21,0,4.82,0c-3.07-7.43-5.46-15.11-7.15-22.97c-0.23-1.06-1.36-1.84-2.41-1.84
			c-1.17,0-2.01,0.8-2.41,1.84c-0.17,0.45-0.35,0.91-0.52,1.36c-0.49,1.26,0.54,2.74,1.75,3.08c1.41,0.39,2.59-0.48,3.08-1.75
			c0.17-0.45,0.35-0.91,0.52-1.36c-1.61,0-3.21,0-4.82,0c1.69,7.86,4.08,15.54,7.15,22.97c0.91,2.2,4.02,2.53,4.82,0
			c0.97-3.07,0.01-6.2-1.49-8.92c-1.25-2.28-3.35-4.54-3.59-7.23c-1.42,0.59-2.85,1.18-4.27,1.77c0.64,0.72,1.1,1.54,1.4,2.46
			c1.39-0.81,2.79-1.62,4.18-2.43c-1.23-1.24-2-2.81-2.12-4.56c-1.42,0.59-2.85,1.18-4.27,1.77c1.94,1.66,3.36,3.62,4.36,5.97
			c1.44-0.84,2.88-1.68,4.32-2.52c-3.72-5.8-7.18-11.75-10.39-17.85c-1.44,0.84-2.88,1.68-4.32,2.52c2.65,4.5,5.3,8.99,7.95,13.49
			c1.44-0.84,2.88-1.68,4.32-2.52c-1.8-2.88-3.46-5.84-4.98-8.88c-0.76-1.52-1.47-3.06-2.16-4.61c-0.5-1.14-1.3-2.52-0.9-3.78
			c-1.39,0.37-2.79,0.74-4.18,1.1c1.51,1.54,2.76,3.2,3.82,5.08c1.44-0.84,2.88-1.68,4.32-2.52c-4.67-6.31-8.89-12.93-12.66-19.81
			c-1.55-2.83-5.84-0.31-4.32,2.52c2.3,4.29,4.59,8.58,6.89,12.87c1.44-0.84,2.88-1.68,4.32-2.52c-1.82-2.99-2.99-6.2-3.59-9.64
			c-1.39,0.81-2.79,1.62-4.18,2.43c2.29,2.73,3.94,5.92,4.94,9.34c1.52-0.64,3.05-1.28,4.57-1.93c-2.41-3.86-3.96-8.05-4.68-12.54
			c-1.39,0.81-2.79,1.62-4.18,2.43c2.23,2.47,3.69,5.43,4.42,8.66c1.52-0.64,3.05-1.28,4.57-1.93c-5.55-7.76-10.27-16.07-14.1-24.81
			c-1.31,1.01-2.62,2.02-3.93,3.03c1.81,1.64,2.51,4.05,3.9,6c1.64,2.28,3.79,3.95,6.67,4.11c1.65,0.09,2.81-1.67,2.41-3.16
			c-1.09-4.11-2.17-8.22-3.27-12.33c-0.54-2.04-1.15-4.04-2.06-5.95c-0.88-1.85-2.05-3.55-3.2-5.24
			c-4.47-6.53-8.39-13.4-11.62-20.63c-1.83-4.09-3.4-8.29-4.77-12.55C226.4,520.56,221.57,521.87,222.56,524.94L222.56,524.94z"/>
	</g>
</g>
<rect x="294.52" y="574.14" class="st2" width="20.75" height="98.12"/>
<circle class="st2" cx="304.56" cy="551.01" r="10.04"/>
<g>
	<g>
		<path d="M315.53,514.45c-0.75,4.05-2.07,7.95-4.05,11.56c-0.94,1.71-1.99,3.36-3.17,4.91c-0.29,0.38-0.59,0.76-0.91,1.13
			c-0.16,0.2-0.34,0.39-0.53,0.57c0.38-0.22,0.75-0.19,1.11,0.1c-0.13,0.05,0.3-1.37,0.37-1.52c3.44-8.36,8.19-16.38,13.19-23.89
			c-1.52-0.64-3.05-1.28-4.57-1.93c-1.7,7.06-4.21,13.86-7.56,20.3c1.52,0.64,3.05,1.28,4.57,1.93c0.7-4,2.07-7.75,4.16-11.23
			c1.66-2.77-2.67-5.29-4.32-2.52c-2.29,3.82-3.89,8.04-4.66,12.43c-0.22,1.22,0.22,2.46,1.45,2.95c1.1,0.44,2.54,0.1,3.12-1.02
			c3.55-6.81,6.27-14.03,8.07-21.49c0.67-2.8-3-4.28-4.57-1.93c-4.79,7.2-9.02,14.76-12.62,22.62c-0.95,2.07-2.12,4.29-1.49,6.63
			c0.54,2.01,2.46,3.52,4.54,3.4c2.31-0.13,3.71-2.33,4.97-4c1.17-1.56,2.23-3.2,3.17-4.91c2.18-3.98,3.73-8.3,4.55-12.76
			c0.25-1.33-0.37-2.7-1.75-3.08C317.39,512.36,315.78,513.11,315.53,514.45L315.53,514.45z"/>
	</g>
</g>
<g>
	<g>
		<path d="M340.43,445.87c-5.14,18.21-12.76,35.66-22.65,51.8c-2.7,4.4-6.7,9.22-5.2,14.74c0.69,2.52,4.01,2.22,4.82,0
			c6.49-17.84,13.43-35.53,20.84-53.01c2.12-5,4.28-9.98,6.47-14.95c0.54-1.23,0.36-2.68-0.9-3.42c-1.06-0.62-2.87-0.34-3.42,0.9
			c-7.81,17.69-15.17,35.58-22.04,53.66c-1.96,5.15-3.88,10.31-5.76,15.49c1.61,0,3.21,0,4.82,0c-0.52-1.92,0.36-3.77,1.3-5.42
			c1.13-1.99,2.44-3.89,3.63-5.85c2.39-3.92,4.65-7.92,6.78-11.99c4.32-8.26,8.09-16.82,11.29-25.58c1.81-4.95,3.42-9.97,4.85-15.04
			C346.13,444.1,341.3,442.78,340.43,445.87L340.43,445.87z"/>
	</g>
</g>
<g>
	<g>
		<path d="M328.99,521.71c-5.92,2.96-12.44,4.54-19.05,4.67c0.42,1.55,0.84,3.11,1.26,4.66c4.39-2.67,8.95-5.01,13.67-7.03
			c0.72-0.31,1.32-1.39,1.24-2.16c-0.25-2.43-2.24-3.56-4.55-3.16c-1.77,0.3-3.58,1.21-5.15,2.05c-3.37,1.81-6.18,4.38-8.49,7.41
			c1.44,0.84,2.88,1.68,4.32,2.52c0.72-1.26,1.62-2.28,2.74-3.2c-1.18-1.18-2.36-2.36-3.54-3.54c-1.69,1.89-3.39,3.77-5.08,5.66
			c-2.14,2.39,1.38,5.94,3.54,3.54c1.69-1.89,3.39-3.77,5.08-5.66c2.18-2.43-1.07-5.56-3.54-3.54c-1.43,1.17-2.61,2.61-3.53,4.22
			c-0.67,1.17-0.28,2.73,0.9,3.42c1.28,0.75,2.6,0.18,3.42-0.9c1.37-1.81,3.12-3.39,5.02-4.63c0.99-0.64,2.02-1.22,3.1-1.7
			c0.5-0.22,1.02-0.41,1.54-0.59c0.15-0.05,0.64-0.12,0.74-0.22c-0.34,0.34-1.39-1.02-1.21-0.65c-0.11-0.42-0.23-0.84-0.34-1.26
			c0.01,0.07,0.01,0.14,0.02,0.21c0.41-0.72,0.83-1.44,1.24-2.16c-4.72,2.02-9.28,4.37-13.67,7.03c-2.07,1.26-1.27,4.71,1.26,4.66
			c7.52-0.15,14.86-1.99,21.58-5.35c1.21-0.6,1.55-2.31,0.9-3.42C331.69,521.38,330.2,521.11,328.99,521.71L328.99,521.71z"/>
	</g>
</g>
</svg>
