<?xml version="1.0" encoding="utf-8"?>
<!-- Generator: Adobe Illustrator 24.1.3, SVG Export Plug-In . SVG Version: 6.00 Build 0)  -->
<svg version="1.1" id="Layer_1" xmlns="http://www.w3.org/2000/svg" xmlns:xlink="http://www.w3.org/1999/xlink" x="0px" y="0px"
	 viewBox="0 0 612 792" style="enable-background:new 0 0 612 792;" xml:space="preserve">
<style type="text/css">
	.st0{fill:none;stroke:#000000;stroke-width:6;stroke-miterlimit:10;}
	.st1{fill:none;stroke:#000000;stroke-width:4;stroke-miterlimit:10;}
	.st2{fill:#FFFFFF;}
</style>
<rect x="171.1" y="105.9" width="12.3" height="58"/>
<path d="M268.4,123.2h0.4V52.4h23.5v103.3H263l-31.3-72.4h-0.4v72.4h-23.5V52.4h29.5L268.4,123.2z"/>
<path d="M311.1,52.4h25.6v103.3h-25.6V52.4z"/>
<path d="M393.6,52.4l18.1,72.9h0.4l18.3-72.9h37.9v103.3h-23.5V73.2h-0.4l-22.6,82.5H402l-22.6-82.5H379v82.5h-23.5V52.4H393.6z"/>
<path d="M543.5,52.4l33.6,103.3h-26.7l-5.9-21.9h-33.8l-5.9,21.9h-26.7l33.6-103.3L543.5,52.4L543.5,52.4z M540.1,116.8l-12.3-46.4
	h-0.4l-12.3,46.4H540.1z"/>
<g>
	<g>
		<path d="M526.3,69.5c-5.8,16.7-10.8,33.7-15.2,50.8c-0.8,3.1,4,4.5,4.8,1.3c4.3-17.1,9.4-34.1,15.2-50.8c0.4-1.3-0.5-2.7-1.8-3.1
			C528,67.4,526.8,68.2,526.3,69.5L526.3,69.5z"/>
	</g>
</g>
<g>
	<g>
		<path d="M527.8,78.6c0.2,0,0.5,0.2,0.8,0.5c0.4,0.4,0.7,1,0.9,1.5c0.6,1.4,0.9,2.9,1.3,4.3c1.1,4,2.2,7.9,3.3,11.9
			c2.2,7.9,4.3,15.9,6.3,23.9c0.8,3.1,5.6,1.8,4.8-1.3c-2.2-8.8-4.5-17.5-6.9-26.3c-1.2-4.2-2.2-8.4-3.5-12.5c-1.1-3.4-3.1-6.6-7-7
			c-1.3-0.1-2.5,1.2-2.5,2.5C525.3,77.6,526.5,78.5,527.8,78.6L527.8,78.6z"/>
	</g>
</g>
<g>
	<g>
		<path d="M528.4,79.6c3.2,0,3.2-5,0-5C525.2,74.6,525.2,79.6,528.4,79.6L528.4,79.6z"/>
	</g>
</g>
<g>
	<g>
		<path d="M541.4,120.1c3.2,0,3.2-5,0-5C538.2,115.1,538.2,120.1,541.4,120.1L541.4,120.1z"/>
	</g>
</g>
<g>
	<g>
		<path d="M515.4,120.4c3.2,0,3.2-5,0-5C512.2,115.4,512.2,120.4,515.4,120.4L515.4,120.4z"/>
	</g>
</g>
<g>
	<g>
		<path d="M546,134.6c3.2,0,3.2-5,0-5C542.7,129.6,542.7,134.6,546,134.6L546,134.6z"/>
	</g>
</g>
<g>
	<g>
		<path d="M509.4,134.6c3.2,0,3.2-5,0-5C506.2,129.6,506.2,134.6,509.4,134.6L509.4,134.6z"/>
	</g>
</g>
<line class="st0" x1="408.9" y1="120.1" x2="433.3" y2="53.9"/>
<line class="st0" x1="419.4" y1="153.8" x2="448" y2="77.1"/>
<line class="st0" x1="391.2" y1="54.5" x2="417.8" y2="120.9"/>
<line class="st0" x1="375" y1="76.1" x2="404.5" y2="151.8"/>
<line class="st0" x1="229.6" y1="89.3" x2="265.2" y2="153.6"/>
<line class="st0" x1="235.9" y1="56" x2="272.8" y2="122.2"/>
<g>
	<g>
		<path d="M374,76.3c2.2,0.9,4,2.7,5.6,4.5c1.8,2,3.3,4.1,4.6,6.4c2.6,4.6,4.4,9.7,5.7,14.8c1.4-0.8,2.8-1.6,4.2-2.4
			c-6.1-6.7-8-16-13.4-23.2c-0.8-1-1.9-1.6-3.1-1c-1,0.4-1.9,1.8-1.5,2.9c1.9,4.6,4.2,9,7.1,13c0.7,1,1.9,1.6,3.1,1
			c1-0.4,1.9-1.8,1.5-2.9c-2.6-6.6-5-13.2-7.2-19.9c-1-3.1-5.8-1.8-4.8,1.3c2.2,6.7,4.6,13.4,7.2,19.9c1.5-0.6,3-1.3,4.6-1.9
			c-2.7-3.7-4.9-7.6-6.6-11.8c-1.5,0.6-3,1.3-4.6,1.9c5.7,7.5,7.7,17.2,14.2,24.2c1.7,1.9,4.8-0.1,4.2-2.4
			c-1.5-5.8-3.5-11.6-6.6-16.7c-3-5.1-7.1-10.2-12.7-12.5c-1.2-0.5-2.8,0.6-3.1,1.8C371.8,74.6,372.7,75.8,374,76.3L374,76.3z"/>
	</g>
</g>
<g>
	<g>
		<path d="M404.9,116.4c1.1,2.5,2.7,4.8,4.5,6.9c0.8,0.9,2.4,0.9,3.3,0.2c1-0.8,1.2-2.1,0.6-3.2c-4.9-10.9-9.8-21.7-14.7-32.5
			c-0.7,1.2-1.4,2.5-2.2,3.8c-0.6,0-0.2-0.2-0.2,0c0,0.2,0.6,1,0.7,1.1c0.5,0.9,1,1.7,1.6,2.5c1,1.6,2,3.2,3,4.9
			c2,3.3,4.1,6.6,6.1,9.9c1.7,2.7,3.7,5.6,4,8.8c0.3,2.9-1.1,5.5-3.3,7.3c1.4,0.8,2.8,1.6,4.2,2.4c0.4-1.7,0.8-3.5,1.2-5.2
			c0.7-3.1-4.1-4.5-4.8-1.3c-0.4,1.7-0.8,3.5-1.2,5.2c-0.6,2.6,2.3,3.9,4.2,2.4c3-2.4,4.8-6.2,4.8-10c0-4.3-2.3-8.1-4.5-11.7
			c-2.4-3.9-4.9-7.9-7.3-11.8c-1.2-2-2.4-3.9-3.7-5.9c-1.1-1.9-2.4-3.7-4.8-3.7c-2,0-2.9,2.1-2.2,3.8c4.9,10.9,9.8,21.7,14.7,32.5
			c1.3-1,2.6-2,3.9-3c-1.5-1.8-2.7-3.8-3.7-5.9c-0.6-1.2-2.3-1.5-3.4-0.9C404.5,113.7,404.3,115.2,404.9,116.4L404.9,116.4z"/>
	</g>
</g>
<g>
	<g>
		<path d="M446.9,68.7c-5,8.1-9.9,16.4-14.6,24.6c-1.6,2.8,2.6,5.2,4.3,2.5c5.2-8.1,10.2-16.3,14.8-24.7c1.5-2.8-2.8-5.4-4.3-2.5
			c-4.6,8.4-9.5,16.7-14.8,24.7c1.4,0.8,2.9,1.7,4.3,2.5c4.8-8.3,9.7-16.5,14.6-24.6C452.9,68.4,448.6,65.9,446.9,68.7L446.9,68.7z"
			/>
	</g>
</g>
<g>
	<g>
		<path d="M256.5,114.4c6.8,2.8,12.4,8,15.8,14.5c0.7-1.2,1.4-2.5,2.2-3.8c0.2,0.1,0.5,0.2,0.8,0.3c-0.1-0.1-0.1-0.1-0.2-0.2
			c-0.1-0.2-0.3-0.4-0.5-0.5c-0.4-0.4-0.8-0.9-1.1-1.3c-0.8-0.9-1.5-1.8-2.2-2.6c-1.5-1.8-3.1-3.6-4.6-5.5c-1.5-1.8-3-3.5-4.5-5.3
			c-1-1.2-2.6-2.6-2.5-4.3c0.1-3.2-4.9-3.2-5,0c-0.1,2.6,1.4,4.7,3,6.6c1.8,2.2,3.6,4.3,5.5,6.5c1.8,2.1,3.5,4.2,5.3,6.3
			c1.6,1.9,3.3,5,6.1,5.1c2,0.1,3-2.2,2.2-3.8c-4-7.7-10.8-13.5-18.8-16.8c-1.2-0.5-2.8,0.6-3.1,1.8
			C254.4,112.8,255.2,113.9,256.5,114.4L256.5,114.4z"/>
	</g>
</g>
<g>
	<g>
		<path d="M223,71.4c3.6,4.4,4.9,10.3,7,15.4c2.4,5.9,5.3,11.4,8.8,16.7c1.3-1,2.6-2,3.9-3c-3.3-2.6-5.5-6.2-7.4-9.9
			c-2.3-4.4-4.4-8.8-6.6-13.2c-1.4-2.9-5.7-0.4-4.3,2.5c2.2,4.5,4.4,9.1,6.8,13.6c2.1,3.9,4.5,7.8,8,10.6c1,0.8,2.2,1,3.3,0.2
			c0.9-0.7,1.3-2.2,0.6-3.2c-3.5-5.3-6.4-10.9-8.8-16.8c-2.2-5.7-3.9-11.6-7.8-16.4c-0.9-1.1-2.6-0.9-3.5,0
			C221.9,68.9,222.1,70.4,223,71.4L223,71.4z"/>
	</g>
</g>
<path d="M73,52.4l18.2,72.9h0.4l18.3-72.9h37.9v103.3h-23.5V73.2h-0.4l-22.6,82.5H81.4L58.8,73.2h-0.4v82.5H34.9V52.4H73z"/>
<line class="st0" x1="88.2" y1="120.1" x2="112.7" y2="53.9"/>
<line class="st0" x1="98.8" y1="153.8" x2="127.4" y2="77.1"/>
<line class="st0" x1="70.6" y1="54.5" x2="97.2" y2="120.9"/>
<line class="st0" x1="54.4" y1="76.1" x2="83.9" y2="151.8"/>
<g>
	<g>
		<path d="M53.3,76.3c2.2,0.9,4,2.7,5.6,4.5c1.8,2,3.3,4.1,4.6,6.4c2.6,4.6,4.4,9.7,5.7,14.8c1.4-0.8,2.8-1.6,4.2-2.4
			c-6.1-6.7-8-16-13.4-23.2c-0.8-1-1.9-1.6-3.1-1c-1,0.4-1.9,1.8-1.5,2.9c1.8,4.6,4.2,9,7.1,13c0.7,1,1.9,1.6,3.1,1
			c1-0.4,1.9-1.8,1.4-2.9c-2.6-6.6-5-13.2-7.2-19.9c-1-3.1-5.8-1.8-4.8,1.3c2.2,6.7,4.6,13.4,7.2,19.9c1.5-0.6,3.1-1.3,4.6-1.9
			c-2.7-3.7-4.9-7.6-6.6-11.8c-1.5,0.6-3,1.3-4.6,1.9c5.7,7.5,7.7,17.2,14.2,24.2c1.7,1.9,4.8-0.1,4.2-2.4
			c-1.5-5.8-3.5-11.6-6.6-16.7c-3-5.1-7.1-10.2-12.7-12.5c-1.2-0.5-2.8,0.6-3.1,1.8C51.2,74.6,52.1,75.8,53.3,76.3L53.3,76.3z"/>
	</g>
</g>
<g>
	<g>
		<path d="M84.3,116.4c1.2,2.5,2.7,4.8,4.5,6.9c0.8,0.9,2.4,0.9,3.3,0.2c1-0.8,1.2-2.1,0.6-3.2c-4.9-10.9-9.8-21.7-14.7-32.5
			c-0.7,1.2-1.4,2.5-2.2,3.8c-0.6,0-0.2-0.2-0.2,0c0,0.2,0.6,1,0.7,1.1c0.5,0.9,1,1.7,1.6,2.5c1,1.6,2,3.2,3,4.9
			c2.1,3.3,4.1,6.6,6.1,9.9c1.7,2.7,3.7,5.6,4,8.8c0.3,2.9-1.1,5.5-3.3,7.3c1.4,0.8,2.8,1.6,4.2,2.4c0.4-1.7,0.8-3.5,1.2-5.2
			c0.7-3.1-4.1-4.5-4.8-1.3c-0.4,1.7-0.8,3.5-1.2,5.2c-0.6,2.6,2.3,3.9,4.2,2.4c3-2.4,4.8-6.2,4.8-10c0-4.3-2.3-8.1-4.5-11.7
			c-2.4-3.9-4.9-7.9-7.3-11.8c-1.2-2-2.4-3.9-3.7-5.9c-1.1-1.9-2.4-3.7-4.8-3.7c-2,0-2.9,2.1-2.2,3.8c4.9,10.9,9.8,21.7,14.7,32.5
			c1.3-1,2.6-2,3.9-3c-1.5-1.8-2.7-3.8-3.7-5.9c-0.6-1.2-2.3-1.5-3.4-0.9C83.9,113.7,83.7,115.2,84.3,116.4L84.3,116.4z"/>
	</g>
</g>
<g>
	<g>
		<path d="M126.3,68.7c-5,8.1-9.9,16.4-14.7,24.6c-1.6,2.8,2.6,5.2,4.3,2.5c5.2-8.1,10.2-16.3,14.8-24.7c1.6-2.8-2.8-5.4-4.3-2.5
			c-4.6,8.4-9.6,16.7-14.8,24.7c1.4,0.8,2.9,1.7,4.3,2.5c4.8-8.3,9.7-16.5,14.6-24.6C132.3,68.4,128,65.9,126.3,68.7L126.3,68.7z"/>
	</g>
</g>
<circle cx="177.1" cy="92.2" r="5.9"/>
<path d="M253,247l51.2,205.9h1L357,247h107v291.7h-66.3V305.9h-1l-63.8,232.9h-56.3l-63.8-232.9h-1v232.9h-66.3V247H253z"/>
<line class="st0" x1="296" y1="438" x2="365" y2="251.1"/>
<line class="st0" x1="325.8" y1="533.3" x2="406.6" y2="316.8"/>
<line class="st0" x1="246.1" y1="253" x2="321.3" y2="440.3"/>
<line class="st0" x1="200.4" y1="314" x2="283.7" y2="527.5"/>
<g>
	<g>
		<path d="M215,327.9c-0.4-0.4-0.9-0.9-1.3-1.3c-1.7-1.7-5.1,0-4.2,2.4c3.8,10.2,8.2,21,17,28c2.2,1.7,5.2-0.4,3.9-3
			c-1.7-3.4-3.3-6.8-5-10.2c-1.6-3.3-3.5-6.6-4.8-10c-1.2-3.1-1.7-6.6-3.4-9.5c-1.4-2.4-3.8-4.2-4.9-6.8c-0.5-1.2-1.6-2.1-3.1-1.8
			c-1.2,0.3-2.2,1.8-1.8,3.1c5,12.7,11.6,24.6,19.6,35.6c0.7,1,1.9,1.6,3.1,1c1-0.5,1.9-1.8,1.4-3c-7.5-18.5-14.3-37.3-20.4-56.3
			c-1-3-5.8-1.8-4.8,1.3c6.1,19,12.9,37.8,20.4,56.3c1.5-0.6,3.1-1.3,4.6-1.9c-7.8-10.6-14.3-22.2-19.1-34.5
			c-1.6,0.4-3.2,0.9-4.8,1.3c1.2,2.9,3.4,4.9,5.1,7.5c1.8,2.7,2.2,6.2,3.4,9.2c1.4,3.5,3.3,6.9,4.9,10.3c1.7,3.6,3.5,7.1,5.2,10.7
			c1.3-1,2.6-2,3.9-3c-8.2-6.5-12.3-16.3-15.8-25.8c-1.4,0.8-2.8,1.6-4.2,2.4c0.4,0.4,0.9,0.9,1.3,1.3
			C213.8,333.8,217.3,330.2,215,327.9L215,327.9z"/>
	</g>
</g>
<g>
	<g>
		<path d="M288.7,425.4c3,6.7,7.1,13,11.9,18.6c0.8,0.9,2.4,0.9,3.3,0.2c1-0.8,1.2-2.1,0.6-3.2c-10.8-23.9-21.6-47.8-32.4-71.6
			c-3-6.8-6.1-13.5-9.2-20.2c-0.7,1.2-1.4,2.5-2.2,3.8c1.3-0.1,2.1,0.7,2.9,1.7c1.2,1.6,2.2,3.4,3.2,5.1c2.4,3.9,4.8,7.8,7.2,11.6
			c4.7,7.7,9.5,15.4,14.2,23.1c4.6,7.5,9.4,14.8,13.7,22.4c3.7,6.6,6.9,13.9,6.4,21.7c-0.4,7.5-4.3,15-10.3,19.6
			c1.2,0.9,2.5,1.9,3.7,2.8c1.1-4.9,2.2-9.8,3.3-14.7c0.7-3.1-4.1-4.5-4.8-1.3c-1.1,4.9-2.2,9.8-3.3,14.7c-0.4,1.9,1.8,4.2,3.7,2.8
			c6.2-4.8,10.7-11.7,12.2-19.4c1.6-8.5-0.6-16.8-4.3-24.4c-4-8.2-9.2-15.8-14-23.5c-5.1-8.3-10.3-16.6-15.4-25
			c-2.8-4.6-5.7-9.2-8.5-13.8c-2.2-3.5-5-9-10-8.5c-2,0.2-3,1.9-2.2,3.8c10.8,23.9,21.6,47.8,32.4,71.6c3,6.8,6.1,13.5,9.2,20.2
			c1.3-1,2.6-2,3.9-3c-4.5-5.3-8.2-11.2-11.1-17.6c-0.5-1.2-2.3-1.5-3.4-0.9C288.3,422.7,288.2,424.1,288.7,425.4L288.7,425.4z"/>
	</g>
</g>
<g>
	<g>
		<path d="M407.5,295.3c-11,18-21.8,36-32.4,54.2c-3,5.1-6,10.2-8.9,15.4c-1.6,2.8,2.6,5.2,4.3,2.5c11.5-17.7,22.5-35.8,33-54.1
			c3-5.2,5.9-10.4,8.7-15.6c1.5-2.8-2.8-5.4-4.3-2.5c-10.2,18.5-20.9,36.8-32.1,54.7c-3.2,5.1-6.4,10.1-9.6,15.1
			c1.4,0.8,2.9,1.7,4.3,2.5c10.5-18.2,21.2-36.4,32.1-54.4c3.1-5.1,6.1-10.1,9.2-15.2C413.5,295,409.1,292.5,407.5,295.3
			L407.5,295.3z"/>
	</g>
</g>
<g>
	<g>
		<path d="M210.5,314.6c1.6,9.3,5.6,17.9,11.5,25.2c0.7,0.9,2.1,0.9,3,0.4c1-0.6,1.4-1.7,1.1-2.8c-0.8-4.5-3.1-8.6-6.5-11.7
			c-1.8-1.7-4.8,0-4.2,2.4c3.2,13.5,9.2,26.4,17.7,37.4c1.3-1,2.6-2,3.9-3c-6.8-7.3-13.7-14.5-20.5-21.8c-1.9-2-5.5,0.6-3.9,3
			c6.5,9.7,11.7,20.2,15.2,31.3c1.5-0.6,3.1-1.3,4.6-1.9c-3.6-7.4-7.1-14.9-10.7-22.3c-1.3-2.6-5.2-0.7-4.6,1.9
			c1,4.1,2.6,8.1,4.5,11.9c1,1.9,2.1,3.7,3.4,5.5c1.1,1.5,2.4,3,3.1,4.7c0.7,1.9-0.3,3.7-0.1,5.7c0.1,2.3,1.1,4.5,1.8,6.6
			c1.6,4.6,3.2,9.2,4.8,13.8c0.9,2.5,1.7,5,2.6,7.5c0.8,2.3,1.5,4.7,3.5,6.3c1.9,1.5,4.8,0.2,4.2-2.4c-3.1-13.5-7.2-26.7-12.2-39.5
			c-0.4-1-1.2-1.8-2.4-1.8c-1,0-2.3,0.8-2.4,1.8c-0.5,3.9,0.5,7.6,3.3,10.4c2,2,5.4-0.6,3.9-3c-8.8-14.6-17.8-29.5-21.4-46.3
			c-1.6,0.4-3.2,0.9-4.8,1.3c6.1,14.7,17.9,25.5,29.6,35.8c2.4,2.1,5.9-1.3,3.5-3.5c-3.8-3.7-8-7-12.4-9.8c-1.1-0.7-2.8-0.3-3.4,0.9
			c-1,1.9-1.1,4.2,0.2,6c0.8,1.1,2.2,1.6,3.4,0.9c1.1-0.6,1.7-2.3,0.9-3.4c-0.2-0.3-0.4-0.6-0.2-1c-1.1,0.3-2.3,0.6-3.4,0.9
			c4.1,2.6,7.9,5.6,11.4,9c1.2-1.2,2.4-2.4,3.5-3.5c-10.9-9.6-22.6-19.8-28.3-33.6c-0.5-1.2-1.7-2.1-3.1-1.8c-1.4,0.4-2,1.8-1.8,3.1
			c3.6,17.3,12.9,32.6,21.9,47.5c1.3-1,2.6-2,3.9-3c-1.4-1.4-2.3-3.5-2-5.5c-1.6,0-3.2,0-4.8,0c5,12.9,9.1,26.1,12.2,39.5
			c1.4-0.8,2.8-1.6,4.2-2.4c-1.4-1.1-1.8-2.9-2.3-4.5c-0.8-2.3-1.6-4.5-2.3-6.8c-1.5-4.5-3.1-8.9-4.6-13.4c-0.6-1.9-1.6-4-1.9-6
			c-0.1-0.9,0.2-1.8,0.3-2.8c0.2-1.1,0.1-2.2-0.1-3.3c-0.8-3.9-4.1-7-6.1-10.3c-2.4-4-4.1-8.2-5.2-12.7c-1.5,0.6-3.1,1.3-4.6,1.9
			c3.6,7.4,7.1,14.9,10.7,22.3c1.2,2.5,5.4,0.8,4.6-1.9c-3.7-11.5-9-22.5-15.7-32.5c-1.3,1-2.6,2-3.9,3c6.8,7.3,13.7,14.5,20.5,21.8
			c0.9,0.9,2.3,0.9,3.3,0.2c0.9-0.7,1.4-2.2,0.6-3.2c-8.2-10.8-14.1-23.1-17.2-36.2c-1.4,0.8-2.8,1.6-4.2,2.4
			c2.8,2.6,4.5,5.8,5.2,9.5c1.4-0.8,2.8-1.6,4.2-2.4c-5.3-6.6-8.8-14.6-10.2-23c-0.2-1.3-1.9-2.1-3.1-1.8
			C210.8,311.9,210.2,313.2,210.5,314.6L210.5,314.6z"/>
	</g>
</g>
<g>
	<g>
		<path d="M330.3,424.2c-11.8,9.4-23.6,18.8-35.5,28.2c1.3,1,2.6,2,3.9,3c7.2-15.9,17.9-29.7,28.6-43.3c0.8-1,1-2.2,0.2-3.3
			c-0.7-0.9-2.2-1.3-3.2-0.6c-15,10-28.1,22.7-38.7,37.4c-0.7,1-0.3,2.5,0.6,3.2c1,0.8,2.3,0.6,3.3-0.2c9-7.7,18.4-15,28-21.9
			c1.1-0.8,1.6-2.2,0.9-3.4c-0.6-1.1-2.3-1.7-3.4-0.9c-10,7.1-19.7,14.7-29,22.7c1.3,1,2.6,2,3.9,3c10-14,22.6-26.1,36.9-35.6
			c-1-1.3-2-2.6-3-3.9c-11,13.9-22,28-29.4,44.3c-1.2,2.6,1.7,4.8,3.9,3c11.8-9.4,23.6-18.8,35.5-28.2c1.1-0.8,0.9-2.7,0-3.5
			C332.8,423.1,331.4,423.3,330.3,424.2L330.3,424.2z"/>
	</g>
</g>
<g>
	<g>
		<path d="M317.7,403c-10.5,5.6-21,11.1-31.6,16.7c3.4,5.8,6.7,11.5,10.1,17.3c3.6-2,7.2-3.7,11-5.3c-0.8,0.3-1.6,0.7-2.4,1
			c8.9-3.7,18.2-6.4,27.7-7.8c-2.6-6.1-5.1-12.2-7.7-18.3c-6.5,4.7-12.7,9.8-18.4,15.5c-5.6,5.6-10.7,11.8-15.4,18.2
			c-2.4,3.4-4.7,6.8-6.9,10.4c-2.2,3.7-1.7,9.2,1.6,12.1c1.3,1.2,2.8,2,4.4,2.6c2.2,0.7,5.7,0.3,7.7-1c8.7-5.9,17.2-12.3,25.5-18.9
			c1.9-1.5,2.9-4.8,2.9-7.1c0-2.5-1.1-5.4-2.9-7.1c-1.9-1.8-4.4-3-7.1-2.9c-0.9,0.1-1.8,0.2-2.7,0.4c-1.7,0.5-3.2,1.3-4.4,2.6
			c-1.6,1.3-3.2,2.6-4.9,3.8c0.7-0.5,1.4-1,2-1.6c-6,4.7-12.2,9.2-18.6,13.5c4.6,4.6,9.1,9.1,13.7,13.7c2.8-4.7,5.9-9.2,9.3-13.6
			c-0.5,0.7-1,1.3-1.6,2c7.1-9.1,15.3-17.3,24.4-24.4c-0.7,0.5-1.4,1-2,1.6c1.1-0.9,2.2-1.7,3.4-2.5c2.1-1.5,4-3.3,4.6-6
			c0.5-2.2,0.4-4.4-0.5-6.5c-0.8-1.9-2.2-3.8-4.1-4.8c-0.8-0.3-1.6-0.7-2.4-1c-1.8-0.5-3.5-0.5-5.3,0c-14.4,2.2-28.3,7.2-41,14.1
			c-4.6,2.5-6.5,9.2-3.6,13.7c3,4.7,8.7,6.2,13.7,3.6c10.5-5.6,21-11.1,31.6-16.7c4.6-2.5,6.4-9.3,3.6-13.7
			C328.4,401.9,322.7,400.4,317.7,403L317.7,403z"/>
	</g>
</g>
<g>
	<g>
		<path d="M326.5,353.1c-3.3,7.9-6.2,16-8.6,24.2c-1.2,4.1-2.3,8.2-3.3,12.4c-0.9,4-1.9,8-3.4,11.8c0.3-0.8,0.7-1.6,1-2.4
			c-2.5,5.8-6.9,10.8-8.2,17.2c-0.5,2.7-0.4,5.3,1,7.7c1.2,2.1,3.6,4,6,4.6c2.6,0.6,5.4,0.5,7.7-1c2.1-1.3,4.1-3.4,4.6-6
			c0.2-1.2,0.6-2.3,1-3.5c-0.3,0.8-0.7,1.6-1,2.4c1.5-3.5,3.8-6.5,5.5-9.9c2.1-4.4,3.5-8.9,4.6-13.6c2-8.4,4.3-16.7,7.1-24.8
			c1.6-4.7,3.4-9.3,5.3-13.8c0.9-2.2,0.1-5.7-1-7.7c-1.2-2.1-3.6-4-6-4.6c-2.6-0.6-5.4-0.5-7.7,1c-0.7,0.5-1.4,1-2,1.6
			C327.9,349.9,327,351.4,326.5,353.1L326.5,353.1z"/>
	</g>
</g>
<g>
	<g>
		<path d="M262,337.4c-0.7,5.9,1.4,11.7,3.6,17c1.8,4.1,3.8,8.2,5.7,12.3c3.9,8.4,7.6,16.8,11.2,25.3c-0.3-0.8-0.7-1.6-1-2.4
			c3.9,9.2,7.5,18.4,11,27.8c0.9,2.5,2.2,4.6,4.6,6c2.1,1.2,5.3,1.8,7.7,1c2.4-0.8,4.8-2.3,6-4.6c1.2-2.3,1.9-5.2,1-7.7
			c-6.6-18.2-14.2-36-22.3-53.5c-2.2-4.8-4.6-9.4-6.6-14.3c0.3,0.8,0.7,1.6,1,2.4c-1-2.4-1.9-4.9-2.2-7.5c0.1,0.9,0.2,1.8,0.4,2.7
			c-0.2-1.5-0.2-3,0-4.5c0.3-2.4-1.3-5.5-2.9-7.1c-1.7-1.7-4.6-3-7.1-2.9c-2.6,0.1-5.3,1-7.1,2.9c-0.5,0.7-1,1.4-1.6,2
			C262.5,333.9,262.1,335.6,262,337.4L262,337.4z"/>
	</g>
</g>
<g>
	<g>
		<path d="M395.9,299.9c-8,12.6-13.6,26.7-18.7,40.7c-5.1,14.2-9.8,28.5-14.7,42.7c-2.9,8.3-5.7,16.7-8.6,25.1
			c-0.8,2.4-0.2,5.6,1,7.7c1.2,2.1,3.6,4,6,4.6c5.6,1.3,10.5-1.7,12.3-7c7.6-22.1,15-44.3,22.8-66.3c2.1-5.8,4.2-11.6,6.6-17.2
			c-0.3,0.8-0.7,1.6-1,2.4c3.3-7.8,7.1-15.4,11.6-22.6c2.8-4.4,1.1-11.2-3.6-13.7C404.6,293.7,398.9,295.2,395.9,299.9L395.9,299.9z
			"/>
	</g>
</g>
<g>
	<g>
		<path d="M354.8,257.9c-9.7,26.4-18,53.2-24.6,80.5c-1.9,7.7-3.6,15.4-5.3,23.2c-0.5,2.6-0.4,5.3,1,7.7c1.2,2.1,3.6,4,6,4.6
			c2.6,0.6,5.4,0.5,7.7-1c2.1-1.4,4.1-3.4,4.6-6c5.8-27.5,13.1-54.6,22-81.3c2.5-7.5,5.1-15,7.9-22.4c0.9-2.3,0.2-5.6-1-7.7
			c-1.2-2.1-3.6-4-6-4.6c-2.6-0.6-5.4-0.5-7.7,1C357.1,253.4,355.8,255.4,354.8,257.9L354.8,257.9z"/>
	</g>
</g>
<g>
	<g>
		<path d="M234.8,260.7c0.9,6.4,2,12.6,3.9,18.7c0.8,2.5,2.3,4.7,4.6,6c2.1,1.2,5.3,1.8,7.7,1c2.4-0.8,4.7-2.3,6-4.6
			c0.3-0.8,0.7-1.6,1-2.4c0.5-1.8,0.5-3.5,0-5.3c-0.7-4.1-1.3-8.3-2-12.4c-6.4,1.8-12.9,3.5-19.3,5.3c8.2,20.7,15.9,41.7,22.9,62.8
			c2,6,4,12.1,5.9,18.1c0.8,2.5,2.3,4.7,4.6,6c2.1,1.2,5.3,1.8,7.7,1c5-1.6,8.7-7,7-12.3c-6.7-21.3-14-42.3-21.9-63.2
			c-2.2-5.9-4.5-11.9-6.9-17.8c-1-2.5-2.2-4.6-4.6-6c-2.1-1.2-5.3-1.8-7.7-1c-2.4,0.8-4.8,2.3-6,4.6c-0.3,0.8-0.7,1.6-1,2.4
			c-0.5,1.8-0.5,3.5,0,5.3c0.7,4.1,1.3,8.3,2,12.4c6.4-1.8,12.9-3.5,19.3-5.3c-1.6-5.1-2.8-10.3-3.5-15.6c0.1,0.9,0.2,1.8,0.4,2.7
			c0-0.2,0-0.3-0.1-0.5c0.1-1.4-0.2-2.7-0.9-3.9c-0.4-1.2-1.1-2.3-2.1-3.2c-1.7-1.7-4.6-3-7.1-2.9c-2.6,0.1-5.3,1-7.1,2.9
			C236.1,255.4,234.5,258.2,234.8,260.7L234.8,260.7z"/>
	</g>
</g>
<line class="st1" x1="251.2" y1="248.5" x2="311.1" y2="412.3"/>
<line class="st1" x1="209.3" y1="359.2" x2="278.6" y2="537.7"/>
<line class="st1" x1="402.5" y1="350.3" x2="331.8" y2="535.2"/>
<line class="st1" x1="359" y1="248" x2="302.2" y2="395.4"/>
<g>
	<g>
		<path d="M388,367.7c-3.9,17.9-10.9,35-17.6,52c-6.9,17.5-13.8,35-20.8,52.5c-4,9.9-7.9,19.8-11.9,29.7c-0.5,1.2,0.5,2.8,1.8,3.1
			c1.4,0.4,2.6-0.5,3.1-1.8c7.1-17.5,14.1-35.1,21.1-52.7c6.9-17.3,13.9-34.6,20.4-52c3.6-9.6,6.7-19.4,8.9-29.5
			C393.5,365.9,388.7,364.6,388,367.7L388,367.7z"/>
	</g>
</g>
<g>
	<g>
		<path d="M393.2,352.5c-2.6,6.8-5.3,13.6-7.9,20.4c-0.5,1.3,0.5,2.7,1.8,3.1c1.4,0.4,2.6-0.5,3.1-1.8c3.7-9,8.6-17.4,13.4-25.8
			c0.6-1,0.4-2.2-0.4-3c-0.9-0.9-2-0.8-3-0.4c-2.2,1-3.7,3-5,5c-1.5,2.4-2.9,4.9-4.3,7.4c-0.6,1.1-1.3,2.2-1.6,3.5
			c-0.3,1.3,0,2.5-0.1,3.8c-0.3,2.4-1.9,4.6-3.2,6.5c1.4,0.8,2.9,1.7,4.3,2.5c2.8-4.2,5.1-8.7,7.1-13.4c-1.6-0.4-3.2-0.9-4.8-1.3
			c-1.9,4.8-3.8,9.6-5.7,14.4c-1,2.6,3.3,4.4,4.6,1.9c0.2-0.4,0.4-0.8,0.6-1.1c1.5-2.8-2.8-5.4-4.3-2.5c-0.2,0.4-0.4,0.8-0.6,1.1
			c1.5,0.6,3,1.3,4.6,1.9c1.9-4.8,3.8-9.6,5.7-14.4c0.5-1.2-0.5-2.8-1.8-3.1c-1.4-0.4-2.6,0.5-3.1,1.8c-1.8,4.3-4,8.4-6.6,12.2
			c-0.8,1.1-0.2,2.8,0.9,3.4c1.2,0.7,2.6,0.2,3.4-0.9c1.4-2,2.7-4.1,3.5-6.4c0.4-1.2,0.5-2.5,0.5-3.7c-0.1-1.2,0-1.7,0.6-2.8
			c1.2-2.3,2.5-4.6,3.9-6.8c1.1-1.8,2-3.8,4-4.6c-1.1-1.1-2.3-2.3-3.4-3.4c-5.1,8.8-10.1,17.6-13.9,27c1.6,0.4,3.2,0.9,4.8,1.3
			c2.6-6.8,5.3-13.6,7.9-20.4c0.5-1.3-0.5-2.7-1.8-3.1C394.9,350.4,393.7,351.2,393.2,352.5L393.2,352.5z"/>
	</g>
</g>
<g>
	<g>
		<path d="M214.8,356.3c0-1.9-0.4-3.5-1.1-5.2c-1.2-2.7-5.2-0.7-4.6,1.9c2.8,11.9,10.2,22,14,33.5c1.2-0.9,2.4-1.9,3.7-2.8
			c-1.2-0.9-2.5-1.9-3.4-3.1c-0.9-1.2-1.2-2.6-1.5-4.1c-0.6-3.2-1.3-6.2-4.1-8.2c-1.1-0.8-2.8-0.2-3.4,0.9c-0.7,1.3-0.2,2.6,0.9,3.4
			c0.8,0.6,1.1,1.8,1.3,2.8c0.4,1.5,0.5,3,1,4.4c1.1,3.7,3.8,6,6.8,8.2c1.8,1.3,4.3-0.9,3.7-2.8c-3.8-11.5-11.2-21.6-14-33.5
			c-1.5,0.6-3.1,1.3-4.6,1.9c0.4,0.9,0.5,1.8,0.5,2.7C209.7,359.5,214.7,359.5,214.8,356.3L214.8,356.3z"/>
	</g>
</g>
<g>
	<g>
		<path d="M219.4,384.7c6.8,16.2,13.6,32.4,20.3,48.6c1.2,3,5.4,1.9,4.8-1.3c-1.5-9.1-4.6-17.9-7.4-26.6c-1.5-4.5-3-9.1-4.4-13.6
			c-1.2-3.6-2.7-7.3-6.6-8.5c-3.1-1-4.4,3.9-1.3,4.8c1.2,0.4,1.9,1.7,2.4,2.8c0.7,1.6,1.1,3.3,1.7,5c1.4,4.2,2.8,8.5,4.1,12.7
			c2.7,8.1,5.4,16.3,6.8,24.8c1.6-0.4,3.2-0.9,4.8-1.3c-6.7-16.2-13.5-32.4-20.3-48.6c-0.5-1.2-1.6-2.1-3.1-1.8
			C220,382,218.9,383.5,219.4,384.7L219.4,384.7z"/>
	</g>
</g>
<g>
	<g>
		<path d="M222.3,386.2c2.5,7.7,5.6,15.1,9.4,22.2c1.9,3.5,3.9,6.9,6.1,10.2c2.2,3.3,4.5,6.4,5.7,10.3c1.4,4.7,2.5,9.4,3.8,14.1
			c0.8-1,1.6-2.1,2.4-3.2c-1.6-0.1-2.7-2-3.4-3.3c-1.1-1.9-2-3.9-3.7-5.4c-2.2-2-5,0.5-3.9,3c3.8,8.7,8.6,17,14.1,24.8
			c1.6,2.3,5.2,1,4.6-1.9c-0.9-4.1-2.9-7.8-5.7-10.9c-0.7-0.8-2.1-0.9-3-0.4c-1,0.6-1.3,1.7-1.1,2.8c0.8,4.9,2.6,9.5,5.2,13.7
			c1.5,2.3,5.4,0.9,4.6-1.9c-1.2-4.3-3.4-8.1-6.2-11.5c-0.7-0.8-2.1-0.9-3-0.4c-1,0.6-1.3,1.7-1.1,2.8c0.7,3.8,2.1,7.5,4.1,10.8
			c1.7,2.8,5.8,0.3,4.3-2.5c-2.3-4.3-4.6-8.6-6.9-12.9c-1.4,0.8-2.9,1.7-4.3,2.5c3.8,6.9,8,13.5,12.7,19.8c0.8,1.1,2.2,1.6,3.4,0.9
			c1.2-0.7,1.6-2.2,0.9-3.4c-1.3-2.2-2.8-4.3-4.6-6.1c-1.4-1.4-3.6-0.7-4.2,1.1c-0.6,1.9-0.2,3.8,0.5,5.6c0.8,1.8,1.6,3.7,2.4,5.4
			c1.7,3.5,3.5,6.9,5.6,10.1c1.7,2.7,6,0.3,4.3-2.5c-2.6-4.5-5.3-9-8-13.5c-1.6-2.8-5.8-0.3-4.3,2.5c3.2,6.1,6.7,12,10.4,17.8
			c0.7,1.1,2.2,1.6,3.4,0.9c1.3-0.8,1.4-2.2,0.9-3.4c-1.1-2.7-2.9-5.1-5.1-7c-1.5-1.3-4.4-0.6-4.3,1.8c0.2,3.1,1.4,5.9,3.6,8.1
			c1.7,1.7,5,0,4.2-2.4c-0.6-1.8-1.5-3.3-2.7-4.7c-1.4-1.5-4.5-0.4-4.3,1.8c0.3,3,1.6,5.5,3.2,7.9c1.3,2,2.9,4.4,2.1,6.9
			c1.6,0,3.2,0,4.8,0c-3.1-7.4-5.5-15.1-7.1-23c-0.2-1.1-1.4-1.8-2.4-1.8c-1.2,0-2,0.8-2.4,1.8c-0.2,0.5-0.4,0.9-0.5,1.4
			c-0.5,1.3,0.5,2.7,1.8,3.1c1.4,0.4,2.6-0.5,3.1-1.8c0.2-0.5,0.4-0.9,0.5-1.4c-1.6,0-3.2,0-4.8,0c1.7,7.9,4.1,15.5,7.1,23
			c0.9,2.2,4,2.5,4.8,0c1-3.1,0-6.2-1.5-8.9c-1.2-2.3-3.4-4.5-3.6-7.2c-1.4,0.6-2.9,1.2-4.3,1.8c0.6,0.7,1.1,1.5,1.4,2.5
			c1.4-0.8,2.8-1.6,4.2-2.4c-1.2-1.2-2-2.8-2.1-4.6c-1.4,0.6-2.9,1.2-4.3,1.8c1.9,1.7,3.4,3.6,4.4,6c1.4-0.8,2.9-1.7,4.3-2.5
			c-3.7-5.8-7.2-11.8-10.4-17.8c-1.4,0.8-2.9,1.7-4.3,2.5c2.6,4.5,5.3,9,8,13.5c1.4-0.8,2.9-1.7,4.3-2.5c-1.8-2.9-3.5-5.8-5-8.9
			c-0.8-1.5-1.5-3.1-2.2-4.6c-0.5-1.1-1.3-2.5-0.9-3.8c-1.4,0.4-2.8,0.7-4.2,1.1c1.5,1.5,2.8,3.2,3.8,5.1c1.4-0.8,2.9-1.7,4.3-2.5
			c-4.7-6.3-8.9-12.9-12.7-19.8c-1.6-2.8-5.8-0.3-4.3,2.5c2.3,4.3,4.6,8.6,6.9,12.9c1.4-0.8,2.9-1.7,4.3-2.5c-1.8-3-3-6.2-3.6-9.6
			c-1.4,0.8-2.8,1.6-4.2,2.4c2.3,2.7,3.9,5.9,4.9,9.3c1.5-0.6,3.1-1.3,4.6-1.9c-2.4-3.9-4-8-4.7-12.5c-1.4,0.8-2.8,1.6-4.2,2.4
			c2.2,2.5,3.7,5.4,4.4,8.7c1.5-0.6,3.1-1.3,4.6-1.9c-5.6-7.8-10.3-16.1-14.1-24.8c-1.3,1-2.6,2-3.9,3c1.8,1.6,2.5,4,3.9,6
			c1.6,2.3,3.8,4,6.7,4.1c1.6,0.1,2.8-1.7,2.4-3.2c-1.1-4.1-2.2-8.2-3.3-12.3c-0.5-2-1.1-4-2.1-6c-0.9-1.8-2.1-3.5-3.2-5.2
			c-4.5-6.5-8.4-13.4-11.6-20.6c-1.8-4.1-3.4-8.3-4.8-12.5C226.1,381.8,221.3,383.1,222.3,386.2L222.3,386.2z"/>
	</g>
</g>
<rect x="294.2" y="435.4" class="st2" width="20.8" height="98.1"/>
<circle class="st2" cx="304.3" cy="412.2" r="10"/>
<g>
	<g>
		<path d="M315.3,375.7c-0.8,4-2.1,8-4,11.6c-0.9,1.7-2,3.4-3.2,4.9c-0.3,0.4-0.6,0.8-0.9,1.1c-0.2,0.2-0.3,0.4-0.5,0.6
			c0.4-0.2,0.8-0.2,1.1,0.1c-0.1,0,0.3-1.4,0.4-1.5c3.4-8.4,8.2-16.4,13.2-23.9c-1.5-0.6-3-1.3-4.6-1.9c-1.7,7.1-4.2,13.9-7.6,20.3
			c1.5,0.6,3,1.3,4.6,1.9c0.7-4,2.1-7.8,4.2-11.2c1.7-2.8-2.7-5.3-4.3-2.5c-2.3,3.8-3.9,8-4.7,12.4c-0.2,1.2,0.2,2.5,1.5,3
			c1.1,0.4,2.5,0.1,3.1-1c3.5-6.8,6.3-14,8.1-21.5c0.7-2.8-3-4.3-4.6-1.9c-4.8,7.2-9,14.8-12.6,22.6c-1,2.1-2.1,4.3-1.5,6.6
			c0.5,2,2.5,3.5,4.5,3.4c2.3-0.1,3.7-2.3,5-4c1.2-1.6,2.2-3.2,3.2-4.9c2.2-4,3.7-8.3,4.5-12.8c0.2-1.3-0.4-2.7-1.8-3.1
			C317.1,373.6,315.5,374.3,315.3,375.7L315.3,375.7z"/>
	</g>
</g>
<g>
	<g>
		<path d="M340.2,307.1c-5.1,18.2-12.8,35.7-22.6,51.8c-2.7,4.4-6.7,9.2-5.2,14.7c0.7,2.5,4,2.2,4.8,0c6.5-17.8,13.4-35.5,20.8-53
			c2.1-5,4.3-10,6.5-15c0.5-1.2,0.4-2.7-0.9-3.4c-1.1-0.6-2.9-0.3-3.4,0.9c-7.8,17.7-15.2,35.6-22,53.7c-2,5.1-3.9,10.3-5.8,15.5
			c1.6,0,3.2,0,4.8,0c-0.5-1.9,0.4-3.8,1.3-5.4c1.1-2,2.4-3.9,3.6-5.9c2.4-3.9,4.6-7.9,6.8-12c4.3-8.3,8.1-16.8,11.3-25.6
			c1.8-5,3.4-10,4.9-15C345.9,305.3,341,304,340.2,307.1L340.2,307.1z"/>
	</g>
</g>
<g>
	<g>
		<path d="M328.7,382.9c-5.9,3-12.4,4.5-19,4.7c0.4,1.5,0.8,3.1,1.3,4.7c4.4-2.7,9-5,13.7-7c0.7-0.3,1.3-1.4,1.2-2.2
			c-0.2-2.4-2.2-3.6-4.5-3.2c-1.8,0.3-3.6,1.2-5.1,2c-3.4,1.8-6.2,4.4-8.5,7.4c1.4,0.8,2.9,1.7,4.3,2.5c0.7-1.3,1.6-2.3,2.7-3.2
			c-1.2-1.2-2.4-2.4-3.5-3.5c-1.7,1.9-3.4,3.8-5.1,5.7c-2.1,2.4,1.4,5.9,3.5,3.5c1.7-1.9,3.4-3.8,5.1-5.7c2.2-2.4-1.1-5.6-3.5-3.5
			c-1.4,1.2-2.6,2.6-3.5,4.2c-0.7,1.2-0.3,2.7,0.9,3.4c1.3,0.8,2.6,0.2,3.4-0.9c1.4-1.8,3.1-3.4,5-4.6c1-0.6,2-1.2,3.1-1.7
			c0.5-0.2,1-0.4,1.5-0.6c0.1,0,0.6-0.1,0.7-0.2c-0.3,0.3-1.4-1-1.2-0.7c-0.1-0.4-0.2-0.8-0.3-1.3c0,0.1,0,0.1,0,0.2
			c0.4-0.7,0.8-1.4,1.2-2.2c-4.7,2-9.3,4.4-13.7,7c-2.1,1.3-1.3,4.7,1.3,4.7c7.5-0.2,14.9-2,21.6-5.3c1.2-0.6,1.5-2.3,0.9-3.4
			C331.4,382.6,329.9,382.3,328.7,382.9L328.7,382.9z"/>
	</g>
</g>
</svg>
