<?xml version="1.0" encoding="utf-8"?>
<!-- Generator: Adobe Illustrator 24.1.3, SVG Export Plug-In . SVG Version: 6.00 Build 0)  -->
<svg version="1.1" id="Layer_1" xmlns="http://www.w3.org/2000/svg" xmlns:xlink="http://www.w3.org/1999/xlink" x="0px" y="0px"
	 viewBox="0 0 360 360" style="enable-background:new 0 0 360 360;" xml:space="preserve">
<style type="text/css">
	.st0{fill:#633327;}
</style>
<g>
	<g>
		<path class="st0" d="M337.17,181.83c0.01,87.61-70.97,158.57-158.58,158.53c-87.6-0.03-158.52-71.04-158.46-158.65
			C20.19,94.12,91.24,23.22,178.85,23.33C266.34,23.43,337.16,94.34,337.17,181.83z M330.85,181.93
			c0.1-83.98-68.05-152.2-152.12-152.28C94.72,29.57,26.53,97.69,26.45,181.77c-0.08,84,68.06,152.21,152.13,152.28
			C262.59,334.12,330.75,266.02,330.85,181.93z"/>
		<path class="st0" d="M326.26,181.89c-0.02,81.58-66.13,147.61-147.73,147.56c-81.58-0.05-147.53-66.15-147.49-147.8
			C31.09,100.11,97.23,34.18,178.9,34.24C260.29,34.3,326.28,100.41,326.26,181.89z M178.91,40.56
			c-78.05-0.11-141.43,63.03-141.55,141c-0.12,78.07,62.89,141.33,141,141.57c77.93,0.24,141.35-62.93,141.58-141.02
			C320.16,104.19,256.87,40.66,178.91,40.56z"/>
		<path class="st0" d="M178.7,318.54c-75.57,0.01-136.73-61.1-136.75-136.64c-0.02-75.67,61.18-136.79,136.93-136.75
			c75.47,0.05,136.55,61.34,136.46,136.93C315.25,257.48,254.12,318.53,178.7,318.54z M309.03,181.97
			c0.1-71.81-58.11-130.29-129.9-130.5C106.99,51.26,48.5,109.42,48.27,181.59c-0.23,71.86,58.19,130.54,130.05,130.64
			C250.49,312.32,308.93,254.08,309.03,181.97z"/>
		<path class="st0" d="M247.2,255.65c-0.21,23-15.57,41.37-38.52,44.74c-26.09,3.83-47.68-15.04-50.59-38.1
			c-0.56-4.47,2.2-8.1,6.63-8.88c4.05-0.72,8.07,1.98,8.78,6.33c1.9,11.58,8.18,19.75,19.14,23.71
			c20.43,7.36,40.86-9.37,38.69-31.03c-1.21-12.13-7.3-19.45-18.92-22.52c-6.08-1.6-12.2-3.1-18.16-5.09
			c-11.51-3.84-16.7-11.58-16.12-23.38c0.52-10.54,8.41-19.79,18.9-22.16c11.78-2.66,24.01,3.93,27.96,15.06
			c2.31,6.52-2.12,12.04-8.86,11.07c-3.26-0.47-4.8-2.66-5.93-5.52c-2.34-5.96-9.27-7.38-13.76-2.94c-4.05,4.01-3.35,9.9,1.8,12.42
			c3.22,1.57,6.8,2.43,10.24,3.54c5.62,1.81,11.42,3.16,16.86,5.41c12.51,5.17,19.06,15.08,21.03,28.22
			C246.82,249.54,246.94,252.6,247.2,255.65z M237.12,255.57c-0.48,3.2-0.67,6.47-1.49,9.57c-4.32,16.2-18.53,25.99-36.35,25.23
			c-14.68-0.62-28.11-12.97-30.86-28.48c-0.32-1.79-0.66-3.34-2.86-3.05c-2.46,0.31-2.18,2.1-1.93,3.93
			c3.51,25.45,33.57,40.66,56.51,28.58c16.2-8.53,24.34-26.08,20.91-44.44c-2.35-12.59-9.14-21.14-21.44-25.11
			c-2.27-0.73-4.55-1.42-6.81-2.15c-5.7-1.83-11.47-3.48-17.08-5.57c-3.46-1.29-5.73-4.05-6.73-7.7
			c-1.91-6.94,1.82-14.37,8.77-16.49c7.54-2.29,14.51,0.12,17.24,7.45c0.73,1.95,1.74,3.79,4.1,2.68c2.39-1.12,1.08-3.13,0.36-4.7
			c-3.21-6.97-8.75-10.81-16.37-11.13c-7.92-0.33-13.83,3.4-17.48,10.32c-5.29,10.04-0.97,21.11,9.68,24.9
			c4.3,1.53,8.79,2.49,13.16,3.81c3.82,1.15,7.73,2.15,11.38,3.71C232.38,232.3,236.76,242.65,237.12,255.57z"/>
		<path class="st0" d="M202.3,158.15c22.36,0.01,40.8,15.79,44.28,37.9c0.72,4.57-1.86,8.62-5.94,9.33
			c-4.89,0.85-8.88-2.03-9.65-7.02c-1.33-8.64-5.72-15.38-13.05-19.97c-9.72-6.08-19.96-6.46-29.87-0.75
			c-10.07,5.8-15.18,14.84-14.7,26.63c0.14,3.3,0.64,6.68,1.57,9.85c2.5,8.54,9.21,12.48,17.16,14.83
			c6.48,1.92,13.06,3.54,19.46,5.71c12.58,4.27,16.12,13.93,14.59,25.57c-1.4,10.67-11.18,19.27-22.04,19.93
			c-10.99,0.67-20.98-5.72-24.46-15.7c-1.08-3.1-0.84-6.04,1.52-8.54c2.32-2.44,5.19-3.12,8.39-2.25c2.79,0.75,3.98,2.99,4.98,5.48
			c1.56,3.89,4.59,5.74,8.49,5.4c3.76-0.32,6.67-2.92,7.58-6.76c0.84-3.55-0.74-6.92-4.64-8.52c-3.77-1.54-7.83-2.36-11.67-3.77
			c-6.87-2.53-13.92-4.74-20.41-8.03c-8.88-4.51-13.19-12.76-15.03-22.23c-2.72-13.94-1.46-27.24,7.53-38.93
			C175.43,164.52,187.27,158.14,202.3,158.15z M202.35,168.5c16.88,0,30.63,11.43,33.83,28.09c0.33,1.71,0.4,3.96,3.13,3.43
			c2.38-0.46,2.2-2.34,1.83-4.09c-3.42-16.18-13.1-26.98-29-31.08c-16.31-4.21-30.22,0.86-40.89,13.98
			c-8.34,10.26-9.51,22.16-7.25,34.72c1.98,11.03,8.27,18.42,18.68,22.38c2.58,0.98,5.17,1.96,7.8,2.81
			c5.89,1.89,11.87,3.53,17.7,5.6c3.99,1.41,6.77,4.35,7.7,8.6c1.59,7.24-2.42,14.16-9.29,16.3c-7.43,2.31-13.99-0.73-17.05-7.97
			c-0.68-1.61-1.42-3.14-3.51-2.32c-2.21,0.86-1.79,2.54-1.06,4.3c3.23,7.81,11.71,12.76,19.83,11.53
			c8.77-1.33,15.76-8.45,16.27-17.13c0.57-9.61-3.12-15.68-12.66-18.47c-8.05-2.36-16.13-4.63-24.02-7.46
			c-7.47-2.68-12.22-8.37-14.58-15.88c-0.88-2.8-1.31-5.77-1.67-8.69C165.57,186.44,181.48,168.5,202.35,168.5z"/>
		<path class="st0" d="M114.38,157.44c0-12.63-0.18-25.27,0.04-37.9c0.47-27.8,22.82-53.05,50.42-56.51
			c8.4-1.05,16.99-0.69,25.49-0.7c4.07,0,7.18,3.8,7.08,7.9c-0.1,4.14-3.27,7.51-7.44,7.61c-5.36,0.13-10.72,0.04-16.08,0.04
			c-22.7,0.01-41.93,17.77-43.64,40.35c-0.19,2.47-0.28,4.96-0.28,7.44c-0.02,23.45-0.01,46.9-0.01,70.35
			c0,5.66-2.82,8.81-7.84,8.78c-4.91-0.03-7.79-3.3-7.8-8.9c-0.01-12.83,0-25.65,0-38.48C114.34,157.44,114.36,157.44,114.38,157.44
			z M124.66,157.07c0-6.6-0.07-13.2,0.02-19.81c0.1-7.74-0.25-15.55,0.64-23.2c2.56-21.8,23.14-40.45,45.1-41.31
			c6.21-0.24,12.43-0.11,18.65-0.18c1.56-0.02,2.82-0.41,2.87-2.39c0.05-1.93-1.1-2.62-2.69-2.59c-7.93,0.17-15.98-0.38-23.76,0.8
			c-26.57,4.03-45.84,26.97-45.86,53.82c-0.02,24.3,0,48.61,0,72.91c0,0.76-0.25,1.72,0.12,2.25c0.62,0.9,1.66,2.12,2.49,2.1
			c0.82-0.02,1.76-1.32,2.34-2.25c0.34-0.56,0.09-1.49,0.09-2.26C124.66,182.33,124.66,169.7,124.66,157.07z"/>
		<path class="st0" d="M135,158.11c0-12.25-0.01-24.5,0-36.75c0.03-20.2,16.42-37.46,36.57-38.41c5.63-0.26,11.28-0.31,16.91-0.25
			c6.27,0.08,9.97,4.49,8.61,9.98c-0.87,3.52-3.72,5.76-7.54,5.8c-4.88,0.05-9.76,0-14.64,0.02c-14.18,0.06-24.41,10.3-24.41,24.43
			c-0.01,24.59,0,49.19-0.01,73.78c0,3.79-1.93,6.68-5.13,7.8c-3.19,1.12-7.04,0.07-8.88-2.87c-0.9-1.44-1.41-3.37-1.43-5.08
			C134.95,183.75,135,170.93,135,158.11z M140.3,158.34c0,11.96,0,23.91,0,35.87c0,1.05-0.3,2.25,0.11,3.11
			c0.45,0.94,1.56,2.15,2.38,2.15c0.8,0,1.77-1.28,2.34-2.2c0.34-0.55,0.07-1.49,0.07-2.26c0-24.01,0.27-48.02-0.09-72.02
			c-0.26-17.17,14.37-30.81,29.85-29.78c4.48,0.3,8.99,0.09,13.48,0.02c1.74-0.03,3.6-0.13,3.48-2.7c-0.11-2.39-1.8-2.31-3.48-2.31
			c-4.78,0.01-9.56,0-14.35,0c-18.73,0.03-33.79,15.17-33.79,33.96C140.3,134.24,140.3,146.29,140.3,158.34z"/>
		<path class="st0" d="M175.22,113.5c4.68,0,9.36-0.03,14.04,0.01c4.68,0.04,8.12,3.34,8.15,7.77c0.03,4.41-3.36,7.81-8.07,7.85
			c-9.36,0.07-18.72,0.07-28.09,0c-4.76-0.03-7.9-3.3-7.88-7.94c0.02-4.61,3.21-7.66,8.08-7.68
			C166.05,113.48,170.63,113.5,175.22,113.5z M175.5,118.8c-4.49,0-8.97,0.03-13.46-0.01c-1.81-0.02-3.34,0.29-3.34,2.51
			c0,2.17,1.43,2.57,3.29,2.56c8.88-0.04,17.75-0.03,26.63-0.01c1.77,0,3.28-0.16,3.31-2.49c0.03-2.33-1.49-2.56-3.26-2.56
			C184.29,118.81,179.89,118.8,175.5,118.8z"/>
		<path class="st0" d="M175.31,149.68c-4.78,0-9.55,0.03-14.33-0.01c-4.46-0.03-7.62-3.33-7.61-7.88c0.01-4.41,3.11-7.6,7.51-7.61
			c9.55-0.03,19.11-0.03,28.66,0c4.54,0.01,7.82,3.26,7.86,7.68c0.04,4.33-3.36,7.78-7.77,7.81
			C184.87,149.71,180.09,149.68,175.31,149.68z M175.2,139.34c-4.39,0-8.78,0.02-13.18-0.01c-1.8-0.01-3.33,0.34-3.32,2.55
			c0.01,2.12,1.37,2.65,3.26,2.64c8.88-0.03,17.76-0.01,26.64-0.02c1.74,0,3.31-0.23,3.32-2.54c0.01-2.28-1.48-2.62-3.26-2.62
			C184.18,139.34,179.69,139.35,175.2,139.34z"/>
	</g>
</g>
</svg>
